<svg width="50" height="50" viewBox="0 0 50 50" fill="none" xmlns="http://www.w3.org/2000/svg">
<rect width="49.2143" height="49.2143" rx="12" fill="#90C1BF"/>
<g clip-path="url(#clip0_134_702)">
<path d="M23.6587 6.631C20.6206 6.66767 14.0891 7.16691 10.4359 10.5185C7.71843 13.211 6.76964 17.192 6.65843 22.1146C6.56616 27.0194 6.45495 36.2306 15.3336 38.7386V42.5586C15.3336 42.5586 15.278 44.0871 16.2883 44.4006C17.5329 44.7946 18.2415 43.6186 19.4246 42.3551L21.6309 39.8601C27.7058 40.3653 32.3587 39.2012 32.8946 39.0284C34.1273 38.6345 41.0706 37.7472 42.2051 28.5349C43.3692 19.0209 41.6384 13.0265 38.514 10.315H38.4951C37.5522 9.44662 33.763 6.68542 25.2972 6.65466C25.2972 6.65466 24.669 6.61207 23.6587 6.62981V6.631ZM23.7628 9.30584C24.6252 9.29993 25.1493 9.3366 25.1493 9.3366C32.3149 9.35553 35.7351 11.5122 36.5419 12.2386C39.173 14.4935 40.5287 19.8976 39.5362 27.8405C38.5933 35.542 32.962 36.0294 31.9198 36.3619C31.4762 36.5038 27.3781 37.5141 22.2154 37.1817C22.2154 37.1817 18.3705 41.8216 17.1685 43.0164C16.9781 43.2258 16.7556 43.2874 16.6137 43.2566C16.4102 43.2069 16.3487 42.9549 16.3605 42.6095L16.3972 36.2696C8.86716 34.1875 9.3108 26.3309 9.39124 22.227C9.48352 18.123 10.2537 14.7656 12.5464 12.4918C15.6329 9.70097 21.179 9.32477 23.7604 9.30584H23.7628ZM24.3306 13.4086C24.2686 13.408 24.2072 13.4196 24.1497 13.4429C24.0923 13.4661 24.04 13.5005 23.9959 13.5441C23.9518 13.5876 23.9167 13.6395 23.8928 13.6966C23.8688 13.7538 23.8564 13.8151 23.8562 13.8771C23.8562 14.1421 24.0715 14.3515 24.3306 14.3515C25.5036 14.3292 26.6694 14.5393 27.7608 14.9698C28.8521 15.4002 29.8475 16.0425 30.6894 16.8595C32.4084 18.5288 33.246 20.7718 33.2779 23.7046C33.2779 23.9637 33.4873 24.179 33.7523 24.179V24.16C33.8772 24.1604 33.9972 24.1113 34.086 24.0235C34.1749 23.9358 34.2255 23.8164 34.2267 23.6916C34.2842 22.3111 34.0603 20.9334 33.5687 19.6422C33.0772 18.351 32.3282 17.1732 31.3673 16.1805C29.4946 14.3503 27.1214 13.4074 24.3306 13.4074V13.4086ZM18.0948 14.4935C17.76 14.4445 17.4185 14.5117 17.1271 14.6839H17.1023C16.4259 15.0804 15.8166 15.5815 15.297 16.1686C14.8652 16.6679 14.6309 17.173 14.5694 17.6593C14.5327 17.9491 14.5576 18.2389 14.6439 18.5158L14.6747 18.5347C15.1609 19.9638 15.7962 21.3385 16.5723 22.6327C17.572 24.451 18.8022 26.1326 20.2326 27.6358L20.2752 27.6973L20.3426 27.747L20.3852 27.7967L20.4349 27.8393C21.9435 29.2738 23.6292 30.5098 25.451 31.5173C27.5331 32.6507 28.7966 33.1866 29.5549 33.409V33.4208C29.7773 33.4883 29.9796 33.519 30.1831 33.519C30.8294 33.4717 31.4412 33.2093 31.921 32.7737C32.5054 32.254 33.001 31.6422 33.3879 30.9625V30.9507C33.7511 30.2669 33.6281 29.6197 33.104 29.182C32.0544 28.2646 30.9195 27.4497 29.7146 26.7485C28.9078 26.3108 28.0879 26.5758 27.7555 27.0194L27.0469 27.9126C26.6837 28.3563 26.0235 28.2947 26.0235 28.2947L26.0046 28.3066C21.082 27.049 19.7688 22.0649 19.7688 22.0649C19.7688 22.0649 19.7073 21.387 20.1628 21.0416L21.0501 20.327C21.4748 19.9816 21.7705 19.1629 21.3151 18.3549C20.6187 17.1484 19.8056 16.0131 18.8875 14.9655C18.6867 14.7185 18.4051 14.5505 18.0925 14.4911L18.0948 14.4935ZM25.1493 15.8989C24.5211 15.8989 24.5211 16.8477 25.1552 16.8477C25.9363 16.8604 26.7073 17.0268 27.4241 17.3376C28.1408 17.6484 28.7893 18.0974 29.3325 18.6589C29.828 19.2055 30.2087 19.846 30.4522 20.5424C30.6956 21.2388 30.7968 21.977 30.7498 22.7132C30.7519 22.8378 30.8028 22.9566 30.8915 23.0441C30.9801 23.1317 31.0996 23.1811 31.2242 23.1817L31.2431 23.2065C31.3686 23.2056 31.4888 23.1553 31.5775 23.0665C31.6663 22.9778 31.7166 22.8576 31.7175 22.7321C31.7601 20.8523 31.1757 19.2753 30.0293 18.0118C28.877 16.7483 27.2693 16.0397 25.2167 15.8989H25.1493ZM25.9265 18.4495C25.2794 18.4306 25.2546 19.3983 25.8958 19.4172C27.455 19.4977 28.2122 20.2856 28.3115 21.9064C28.3137 22.0294 28.3639 22.1467 28.4515 22.2331C28.539 22.3196 28.657 22.3683 28.78 22.3689H28.7989C28.8622 22.3662 28.9243 22.3509 28.9816 22.324C29.0389 22.297 29.0902 22.2589 29.1326 22.2119C29.175 22.1648 29.2076 22.1098 29.2285 22.0501C29.2494 21.9903 29.2582 21.927 29.2544 21.8638C29.1432 19.7509 27.9909 18.5607 25.9455 18.4507H25.9265V18.4495Z" fill="white"/>
</g>
<defs>
<clipPath id="clip0_134_702">
<rect width="37.8571" height="37.8571" fill="white" transform="translate(5.67871 6.625)"/>
</clipPath>
</defs>
</svg>
