<svg width="50" height="50" viewBox="0 0 50 50" fill="none" xmlns="http://www.w3.org/2000/svg">
<rect width="49.2143" height="49.2143" rx="12" fill="#90C1BF"/>
<path fill-rule="evenodd" clip-rule="evenodd" d="M37.3492 11.181C35.6903 9.43164 33.7166 8.04456 31.5424 7.10008C29.3681 6.1556 27.0366 5.6725 24.6829 5.67877C14.8132 5.67877 6.77859 14.094 6.7746 24.438C6.7746 27.744 7.59841 30.9705 9.16424 33.8166L6.625 43.5359L16.1177 40.9258C18.7435 42.4233 21.6853 43.2085 24.6749 43.2099H24.6829C34.5506 43.2099 42.5852 34.7946 42.5892 24.4506C42.596 21.9857 42.1364 19.5439 41.237 17.2663C40.3376 14.9887 39.0162 12.9204 37.3492 11.181ZM24.6829 40.044H24.6769C22.0111 40.0443 19.3943 39.2928 17.1011 37.8686L16.5585 37.53L10.9255 39.0785L12.4275 33.3256L12.0745 32.7363C10.584 30.2504 9.79502 27.3736 9.79855 24.438C9.80254 15.841 16.4788 8.84676 24.6889 8.84676C26.6442 8.84221 28.5809 9.24398 30.387 10.0288C32.1931 10.8136 33.8327 11.9659 35.2109 13.419C36.5964 14.8652 37.6946 16.5847 38.442 18.4782C39.1894 20.3717 39.5712 22.4016 39.5653 24.4506C39.5613 33.0476 32.8851 40.044 24.6829 40.044ZM32.8472 28.3646C32.3984 28.1285 30.2002 26.9958 29.7893 26.8391C29.3804 26.6824 29.0832 26.6051 28.784 27.0732C28.4848 27.5413 27.6271 28.5966 27.3658 28.91C27.1045 29.2235 26.8431 29.2611 26.3963 29.027C25.9495 28.793 24.5074 28.2977 22.7979 26.7012C21.4675 25.4578 20.5699 23.924 20.3086 23.4538C20.0473 22.9836 20.2806 22.7308 20.506 22.4967C20.7075 22.2877 20.9528 21.9492 21.1762 21.6755C21.3996 21.4017 21.4735 21.2074 21.6231 20.8939C21.7727 20.5805 21.6989 20.3067 21.5852 20.0727C21.4735 19.8365 20.5778 17.5295 20.2048 16.5912C19.8438 15.6822 19.4748 15.8034 19.1995 15.7909C18.9144 15.7786 18.6291 15.7731 18.3438 15.7741C18.1169 15.7802 17.8937 15.8353 17.6881 15.936C17.4825 16.0367 17.2989 16.1808 17.149 16.3593C16.7381 16.8294 15.5831 17.9621 15.5831 20.2691C15.5831 22.5761 17.1869 24.8058 17.4103 25.1193C17.6337 25.4327 20.5659 30.1659 25.0539 32.1971C26.1231 32.6798 26.9568 32.9682 27.6051 33.1856C28.6763 33.5429 29.6517 33.4907 30.4236 33.3715C31.2833 33.2378 33.0706 32.2389 33.4436 31.1439C33.8166 30.0489 33.8166 29.1106 33.7049 28.9142C33.5932 28.7178 33.292 28.5986 32.8472 28.3646Z" fill="white"/>
</svg>
