<svg width="22" height="22" viewBox="0 0 22 22" fill="none" xmlns="http://www.w3.org/2000/svg">
<path d="M10.9999 1.83325C9.46697 1.83482 7.95893 2.22079 6.61374 2.95583C5.26856 3.69088 4.12919 4.75154 3.29988 6.04075C2.13348 7.87001 1.65368 10.0537 1.9458 12.2034C2.23793 14.3531 3.28304 16.3296 4.89527 17.7812C6.50751 19.2329 8.58237 20.0657 10.7509 20.1316C12.9193 20.1974 15.0409 19.492 16.7382 18.1408C18.2155 16.9517 19.2876 15.3338 19.8068 13.5099C20.3261 11.686 20.2669 9.74602 19.6374 7.9572C19.008 6.16838 17.8392 4.6188 16.2923 3.52201C14.7453 2.42521 12.8962 1.83519 10.9999 1.83325ZM12.8332 3.90492C14.0999 4.2328 15.2558 4.89362 16.181 5.81881C17.1062 6.74401 17.767 7.8999 18.0949 9.16659C16.5622 9.20975 15.0662 9.64529 13.7499 10.4316C13.0889 9.68174 12.3516 9.0028 11.5499 8.40575C12.3576 7.0408 12.7996 5.49059 12.8332 3.90492ZM10.9999 3.66659C10.9969 4.98203 10.6356 6.2718 9.95488 7.39742C9.81738 7.32409 9.68905 7.24159 9.55155 7.17742C8.37122 6.55463 7.10912 6.10101 5.80238 5.82992C6.48351 5.14473 7.29331 4.60088 8.18527 4.22963C9.07722 3.85837 10.0337 3.66703 10.9999 3.66659ZM4.58322 7.47992C6.02093 7.67964 7.41335 8.12621 8.69905 8.79992L8.81822 8.87325C8.14163 9.5492 7.33832 10.085 6.4543 10.4499C5.57028 10.8149 4.62293 11.0018 3.66655 10.9999C3.67165 9.76822 3.9869 8.55765 4.58322 7.47992ZM9.16655 18.0949C7.89987 17.767 6.74398 17.1062 5.81878 16.181C4.89358 15.2558 4.23277 14.0999 3.90488 12.8333C5.12923 12.8061 6.33541 12.5314 7.45078 12.0257C8.56614 11.52 9.56762 10.7937 10.3949 9.89075C11.0576 10.3806 11.6715 10.9332 12.2282 11.5408C11.3 12.3684 10.5499 13.3763 10.0235 14.503C9.49716 15.6298 9.20559 16.8519 9.16655 18.0949ZM10.9999 18.3333C11.0019 17.3262 11.2112 16.3303 11.615 15.4077C12.0187 14.4851 12.6082 13.6556 13.3465 12.9708C13.4016 13.0441 13.4565 13.1083 13.5024 13.1816C14.2705 14.3579 14.8403 15.6523 15.189 17.0133C13.9622 17.8747 12.499 18.3357 10.9999 18.3333ZM16.6924 15.5833C16.2943 14.3705 15.7396 13.2149 15.0424 12.1458L14.8499 11.9166C15.9157 11.3236 17.1136 11.0084 18.3332 10.9999C18.3241 12.67 17.7453 14.2869 16.6924 15.5833Z" fill="#5B636B"/>
</svg>
