<svg width="70" height="70" viewBox="0 0 70 70" fill="none" xmlns="http://www.w3.org/2000/svg">
<g clip-path="url(#clip0_136_1)">
<path d="M35 70C54.33 70 70 54.33 70 35C70 15.67 54.33 0 35 0C15.67 0 0 15.67 0 35C0 54.33 15.67 70 35 70Z" fill="#FF6B6B"/>
<path d="M70 35H0C0 54.33 15.67 70 35 70C54.33 70 70 54.33 70 35Z" fill="#FF1F3D"/>
<path d="M25.4295 54.8242C25.1106 54.8242 24.7907 54.7499 24.4962 54.5993C23.8104 54.2487 23.3789 53.5435 23.3789 52.7734V17.2265C23.3789 16.4564 23.8104 15.7512 24.496 15.4006C25.1817 15.0501 26.006 15.1131 26.6304 15.564L51.2397 33.3374C51.7736 33.723 52.0898 34.3415 52.0898 34.9999C52.0898 35.6584 51.7736 36.2769 51.2397 36.6624L26.6304 54.4359C26.2742 54.6932 25.853 54.8242 25.4295 54.8242Z" fill="#F9F9F9"/>
<path d="M23.3789 35V52.7734C23.3789 53.5436 23.8104 54.2488 24.496 54.5993C24.7905 54.75 25.1106 54.8242 25.4294 54.8242C25.8528 54.8242 26.2742 54.6932 26.6304 54.4359L51.2397 36.6625C51.7735 36.277 52.0898 35.6584 52.0898 35H23.3789Z" fill="#E2DFF4"/>
</g>
<defs>
<clipPath id="clip0_136_1">
<rect width="70" height="70" rx="8" fill="white"/>
</clipPath>
</defs>
</svg>
