<svg width="22" height="22" viewBox="0 0 22 22" fill="none" xmlns="http://www.w3.org/2000/svg">
<path d="M20.1666 10.0832C20.1692 9.43711 20.001 8.8018 19.679 8.24161C19.3571 7.68143 18.8928 7.21626 18.3333 6.89321C18.3471 6.73462 18.3471 6.57513 18.3333 6.41654C18.3333 5.6872 18.0435 4.98773 17.5278 4.472C17.0121 3.95628 16.3126 3.66654 15.5833 3.66654H15.4183C15.2656 3.24333 15.0115 2.86403 14.6781 2.56191C14.3447 2.25979 13.9423 2.04408 13.5062 1.93368C13.07 1.82329 12.6135 1.82159 12.1765 1.92873C11.7395 2.03587 11.3356 2.24858 10.9999 2.54821C10.6643 2.24858 10.2603 2.03587 9.82338 1.92873C9.38642 1.82159 8.92985 1.82329 8.4937 1.93368C8.05755 2.04408 7.65515 2.25979 7.32178 2.56191C6.98841 2.86403 6.73426 3.24333 6.58161 3.66654H6.41661C5.68726 3.66654 4.98779 3.95628 4.47207 4.472C3.95634 4.98773 3.66661 5.6872 3.66661 6.41654C3.65281 6.57513 3.65281 6.73462 3.66661 6.89321C3.14637 7.18727 2.70588 7.60403 2.3835 8.10722C2.06112 8.6104 1.86661 9.18476 1.8169 9.78029C1.7672 10.3758 1.86381 10.9745 2.09832 11.5241C2.33284 12.0738 2.69814 12.5578 3.16244 12.934C2.86203 13.4944 2.71247 14.1232 2.72844 14.7588C2.74442 15.3943 2.92539 16.0148 3.25358 16.5594C3.58177 17.1039 4.04592 17.5537 4.60045 17.8647C5.15498 18.1757 5.78084 18.3371 6.41661 18.3332H6.58161C6.73426 18.7564 6.98841 19.1357 7.32178 19.4378C7.65515 19.74 8.05755 19.9557 8.4937 20.0661C8.92985 20.1765 9.38642 20.1782 9.82338 20.071C10.2603 19.9639 10.6643 19.7512 10.9999 19.4515C11.3356 19.7512 11.7395 19.9639 12.1765 20.071C12.6135 20.1782 13.07 20.1765 13.5062 20.0661C13.9423 19.9557 14.3447 19.74 14.6781 19.4378C15.0115 19.1357 15.2656 18.7564 15.4183 18.3332H15.5833C16.2152 18.3292 16.8353 18.162 17.3835 17.8478C17.9317 17.5335 18.3894 17.0829 18.7122 16.5397C19.035 15.9965 19.212 15.3791 19.2259 14.7473C19.2398 14.1156 19.0902 13.4909 18.7916 12.934C19.2192 12.5917 19.5646 12.158 19.8026 11.6646C20.0405 11.1713 20.1649 10.6309 20.1666 10.0832ZM10.0833 7.83738C9.88363 7.72319 9.67519 7.6251 9.45994 7.54404C9.22898 7.46625 8.97658 7.48339 8.75825 7.59169C8.53993 7.69999 8.37357 7.89059 8.29578 8.12154C8.21798 8.3525 8.23512 8.60491 8.34342 8.82323C8.45172 9.04156 8.64232 9.20791 8.87328 9.28571C9.22614 9.41328 9.53136 9.64604 9.74774 9.95258C9.96412 10.2591 10.0812 10.6247 10.0833 10.9999V12.4207C9.88363 12.3065 9.67519 12.2084 9.45994 12.1274C9.22898 12.0496 8.97658 12.0667 8.75825 12.175C8.53993 12.2833 8.37357 12.4739 8.29578 12.7049C8.21798 12.9358 8.23512 13.1882 8.34342 13.4066C8.45172 13.6249 8.64232 13.7912 8.87328 13.869C9.22614 13.9966 9.53136 14.2294 9.74774 14.5359C9.96412 14.8425 10.0812 15.208 10.0833 15.5832V17.4165C10.0833 17.6597 9.9867 17.8928 9.81479 18.0647C9.64288 18.2366 9.40972 18.3332 9.16661 18.3332C8.98926 18.3321 8.81606 18.2795 8.668 18.1819C8.51994 18.0842 8.40338 17.9458 8.33244 17.7832C8.48615 17.693 8.63319 17.5919 8.77244 17.4807C8.86513 17.4037 8.94174 17.3091 8.9979 17.2025C9.05405 17.0958 9.08865 16.9792 9.09971 16.8591C9.11078 16.7391 9.09809 16.6181 9.06239 16.503C9.02668 16.3879 8.96865 16.2809 8.89161 16.1882C8.81457 16.0955 8.72002 16.0189 8.61337 15.9628C8.50672 15.9066 8.39006 15.872 8.27004 15.8609C8.15002 15.8499 8.029 15.8626 7.91388 15.8983C7.79876 15.934 7.6918 15.992 7.59911 16.069C7.26813 16.3477 6.84927 16.5003 6.41661 16.4999C5.93038 16.4999 5.46406 16.3067 5.12025 15.9629C4.77643 15.6191 4.58328 15.1528 4.58328 14.6665C4.58766 14.3215 4.68934 13.9847 4.87661 13.6949C5.08233 13.7318 5.29094 13.7502 5.49994 13.7499C5.74306 13.7499 5.97622 13.6533 6.14812 13.4814C6.32003 13.3095 6.41661 13.0763 6.41661 12.8332C6.41661 12.5901 6.32003 12.3569 6.14812 12.185C5.97622 12.0131 5.74306 11.9165 5.49994 11.9165C5.28342 11.9178 5.06867 11.8773 4.86744 11.7974C4.53776 11.6785 4.24906 11.4676 4.03556 11.1896C3.82206 10.9117 3.69269 10.5784 3.66279 10.2292C3.63288 9.88001 3.7037 9.52957 3.86684 9.21938C4.02998 8.9092 4.27861 8.65227 4.58328 8.47904C4.71353 8.59889 4.8547 8.7063 5.00494 8.79988C5.21645 8.92144 5.46759 8.95399 5.7031 8.89039C5.93862 8.82678 6.13922 8.67222 6.26078 8.46071C6.38233 8.2492 6.41489 7.99807 6.35128 7.76255C6.28768 7.52704 6.13312 7.32644 5.92161 7.20488C5.79257 7.13369 5.68495 7.02924 5.60994 6.90238C5.52519 6.7552 5.48686 6.58587 5.49994 6.41654C5.49994 6.17343 5.59652 5.94027 5.76843 5.76836C5.94034 5.59646 6.17349 5.49988 6.41661 5.49988C6.48047 5.49097 6.54525 5.49097 6.60911 5.49988C6.65764 5.64716 6.71582 5.79108 6.78328 5.93071C6.84316 6.03575 6.92324 6.1279 7.01889 6.20186C7.11454 6.27582 7.22388 6.33013 7.34061 6.36166C7.45733 6.39318 7.57915 6.4013 7.69903 6.38555C7.81891 6.3698 7.93449 6.33049 8.03911 6.26988C8.24234 6.1476 8.39026 5.95131 8.4518 5.72226C8.51334 5.4932 8.4837 5.24921 8.36911 5.04154C8.29219 4.90093 8.25126 4.74348 8.24994 4.58321C8.24994 4.3401 8.34652 4.10694 8.51843 3.93503C8.69034 3.76312 8.92349 3.66654 9.16661 3.66654C9.40972 3.66654 9.64288 3.76312 9.81479 3.93503C9.9867 4.10694 10.0833 4.3401 10.0833 4.58321V7.83738ZM17.1324 11.7974C16.9312 11.8773 16.7165 11.9178 16.4999 11.9165C16.2568 11.9165 16.0237 12.0131 15.8518 12.185C15.6798 12.3569 15.5833 12.5901 15.5833 12.8332C15.5833 13.0763 15.6798 13.3095 15.8518 13.4814C16.0237 13.6533 16.2568 13.7499 16.4999 13.7499C16.7089 13.7502 16.9176 13.7318 17.1233 13.6949C17.3105 13.9847 17.4122 14.3215 17.4166 14.6665C17.4166 15.1528 17.2235 15.6191 16.8796 15.9629C16.5358 16.3067 16.0695 16.4999 15.5833 16.4999C15.1506 16.5003 14.7318 16.3477 14.4008 16.069C14.2136 15.9135 13.9722 15.8386 13.7298 15.8609C13.4875 15.8833 13.2639 16.001 13.1083 16.1882C12.9527 16.3754 12.8778 16.6168 12.9002 16.8591C12.9225 17.1015 13.0402 17.3251 13.2274 17.4807C13.3667 17.5919 13.5137 17.693 13.6674 17.7832C13.5965 17.9458 13.4799 18.0842 13.3319 18.1819C13.1838 18.2795 13.0106 18.3321 12.8333 18.3332C12.5902 18.3332 12.357 18.2366 12.1851 18.0647C12.0132 17.8928 11.9166 17.6597 11.9166 17.4165V15.5832C11.9186 15.208 12.0358 14.8425 12.2521 14.5359C12.4685 14.2294 12.7737 13.9966 13.1266 13.869C13.3576 13.7912 13.5482 13.6249 13.6565 13.4066C13.7648 13.1882 13.7819 12.9358 13.7041 12.7049C13.6263 12.4739 13.46 12.2833 13.2416 12.175C13.0233 12.0667 12.7709 12.0496 12.5399 12.1274C12.3247 12.2084 12.1163 12.3065 11.9166 12.4207V10.9999C11.9186 10.6247 12.0358 10.2591 12.2521 9.95258C12.4685 9.64604 12.7737 9.41328 13.1266 9.28571C13.241 9.24719 13.3466 9.18652 13.4375 9.10717C13.5284 9.02782 13.6028 8.93133 13.6565 8.82323C13.7101 8.71513 13.7419 8.59752 13.7501 8.47713C13.7582 8.35673 13.7426 8.2359 13.7041 8.12154C13.6656 8.00718 13.6049 7.90153 13.5256 7.81062C13.4462 7.71971 13.3497 7.64531 13.2416 7.59169C13.1335 7.53806 13.0159 7.50625 12.8955 7.49808C12.7751 7.4899 12.6543 7.50552 12.5399 7.54404C12.3247 7.6251 12.1163 7.72319 11.9166 7.83738V4.58321C11.9166 4.3401 12.0132 4.10694 12.1851 3.93503C12.357 3.76312 12.5902 3.66654 12.8333 3.66654C13.0764 3.66654 13.3095 3.76312 13.4815 3.93503C13.6534 4.10694 13.7499 4.3401 13.7499 4.58321C13.7486 4.74348 13.7077 4.90093 13.6308 5.04154C13.5698 5.14562 13.5299 5.26071 13.5135 5.38022C13.4971 5.49972 13.5044 5.6213 13.5351 5.73796C13.5657 5.85463 13.6191 5.9641 13.6922 6.0601C13.7652 6.15609 13.8565 6.23673 13.9608 6.29738C14.0654 6.35799 14.181 6.3973 14.3009 6.41305C14.4207 6.4288 14.5425 6.42068 14.6593 6.38916C14.776 6.35763 14.8853 6.30332 14.981 6.22936C15.0766 6.1554 15.1567 6.06325 15.2166 5.95821C15.2852 5.80966 15.3434 5.65651 15.3908 5.49988C15.4546 5.49097 15.5194 5.49097 15.5833 5.49988C15.8264 5.49988 16.0595 5.59646 16.2315 5.76836C16.4034 5.94027 16.4999 6.17343 16.4999 6.41654C16.4985 6.59624 16.4443 6.77156 16.3441 6.92071C16.2691 7.03966 16.165 7.13748 16.0416 7.20488C15.8301 7.32644 15.6755 7.52704 15.6119 7.76255C15.5483 7.99807 15.5809 8.2492 15.7024 8.46071C15.824 8.67222 16.0246 8.82678 16.2601 8.89039C16.4956 8.95399 16.7468 8.92144 16.9583 8.79988C17.1229 8.71087 17.2766 8.60322 17.4166 8.47904C17.7223 8.64921 17.9729 8.9033 18.1389 9.21131C18.3049 9.51932 18.3792 9.86839 18.3532 10.2173C18.3272 10.5662 18.2019 10.9004 17.992 11.1804C17.7822 11.4603 17.4967 11.6744 17.1691 11.7974H17.1324Z" fill="#5B636B"/>
</svg>
