<svg width="22" height="22" viewBox="0 0 22 22" fill="none" xmlns="http://www.w3.org/2000/svg">
<path d="M8.25017 10.0833C8.43147 10.0833 8.6087 10.0295 8.75944 9.92876C8.91019 9.82804 9.02768 9.68488 9.09706 9.51738C9.16644 9.34988 9.18459 9.16557 9.14922 8.98775C9.11385 8.80994 9.02655 8.6466 8.89835 8.5184C8.77015 8.3902 8.60682 8.3029 8.429 8.26753C8.25118 8.23216 8.06687 8.25031 7.89937 8.31969C7.73188 8.38907 7.58871 8.50657 7.48799 8.65731C7.38726 8.80806 7.3335 8.98528 7.3335 9.16658C7.3335 9.4097 7.43008 9.64286 7.60199 9.81476C7.77389 9.98667 8.00705 10.0833 8.25017 10.0833ZM11.0002 1.83325C9.18717 1.83325 7.41489 2.37087 5.90744 3.37811C4.39999 4.38536 3.22507 5.817 2.53127 7.49199C1.83747 9.16698 1.65594 11.0101 2.00964 12.7882C2.36333 14.5664 3.23637 16.1997 4.51836 17.4817C5.80034 18.7637 7.43368 19.6368 9.21184 19.9904C10.99 20.3441 12.8331 20.1626 14.5081 19.4688C16.1831 18.775 17.6147 17.6001 18.622 16.0926C19.6292 14.5852 20.1668 12.8129 20.1668 10.9999C20.1668 9.79613 19.9297 8.60414 19.4691 7.49199C19.0084 6.37983 18.3332 5.36931 17.482 4.51811C16.6308 3.6669 15.6203 2.99169 14.5081 2.53102C13.3959 2.07035 12.204 1.83325 11.0002 1.83325ZM11.0002 18.3332C9.54977 18.3332 8.13195 17.9032 6.92599 17.0974C5.72003 16.2916 4.78009 15.1463 4.22505 13.8063C3.67001 12.4663 3.52478 10.9918 3.80774 9.56926C4.0907 8.14673 4.78913 6.84005 5.81472 5.81447C6.8403 4.78888 8.14698 4.09045 9.56951 3.80749C10.992 3.52453 12.4665 3.66976 13.8065 4.2248C15.1465 4.77984 16.2918 5.71978 17.0976 6.92574C17.9034 8.1317 18.3335 9.54952 18.3335 10.9999C18.3335 12.9448 17.5609 14.8101 16.1856 16.1854C14.8104 17.5606 12.9451 18.3332 11.0002 18.3332ZM13.7502 11.9166H8.25017C8.00705 11.9166 7.77389 12.0132 7.60199 12.1851C7.43008 12.357 7.3335 12.5901 7.3335 12.8333C7.3335 13.8057 7.71981 14.7383 8.40744 15.426C9.09508 16.1136 10.0277 16.4999 11.0002 16.4999C11.9726 16.4999 12.9053 16.1136 13.5929 15.426C14.2805 14.7383 14.6668 13.8057 14.6668 12.8333C14.6668 12.5901 14.5703 12.357 14.3983 12.1851C14.2264 12.0132 13.9933 11.9166 13.7502 11.9166ZM11.0002 14.6666C10.6787 14.6663 10.3629 14.5814 10.0846 14.4205C9.80622 14.2596 9.57508 14.0283 9.41434 13.7499H12.586C12.4253 14.0283 12.1941 14.2596 11.9158 14.4205C11.6374 14.5814 11.3217 14.6663 11.0002 14.6666ZM13.7502 8.24992C13.5689 8.24992 13.3916 8.30368 13.2409 8.4044C13.0902 8.50513 12.9727 8.64829 12.9033 8.81579C12.8339 8.98329 12.8157 9.1676 12.8511 9.34542C12.8865 9.52323 12.9738 9.68657 13.102 9.81476C13.2302 9.94296 13.3935 10.0303 13.5713 10.0656C13.7492 10.101 13.9335 10.0829 14.101 10.0135C14.2685 9.94409 14.4116 9.8266 14.5123 9.67586C14.6131 9.52511 14.6668 9.34788 14.6668 9.16658C14.6668 8.92347 14.5703 8.69031 14.3983 8.5184C14.2264 8.34649 13.9933 8.24992 13.7502 8.24992Z" fill="#5B636B"/>
</svg>
