<svg width="118" height="118" viewBox="0 0 118 118" fill="none" xmlns="http://www.w3.org/2000/svg">
<g clip-path="url(#clip0_15_239)">
<path d="M82.341 93.7541C79.5031 91.3818 76.8495 87.8397 76.8495 82.888L60.1864 77.684L51.9355 82.888C56.2557 95.7951 69.0138 102.411 75.6322 105.054C78.0307 106.012 80.7656 105.492 82.6487 103.724C85.566 100.984 85.4118 96.3209 82.341 93.7541Z" fill="url(#paint0_linear_15_239)"/>
<path d="M76.8495 82.888L60.1864 77.684L51.9355 82.888C52.8213 85.534 54.0654 87.9114 55.5345 90.0486H78.9949C77.7195 88.0931 76.8495 85.7216 76.8495 82.888Z" fill="#8959C3"/>
<path d="M102.884 52.7688C103.702 50.61 104.154 48.2707 104.154 45.8251C104.154 35.5709 96.2791 27.1609 86.2479 26.3004C83.7831 18.2926 76.3272 12.472 67.511 12.472C63.0513 12.472 58.9417 13.964 55.6478 16.4723C52.3539 13.964 48.2441 12.472 43.7846 12.472C34.9682 12.472 27.5126 18.2928 25.0477 26.3004C15.0166 27.1609 7.14159 35.5709 7.14159 45.8251C7.14159 48.2707 7.59314 50.61 8.41138 52.7688C3.40602 55.4826 0 60.7839 0 66.8649C0 75.701 7.18695 82.888 16.0231 82.888H95.2721C104.108 82.888 111.295 75.701 111.295 66.8649C111.295 60.7839 107.889 55.4826 102.884 52.7688Z" fill="url(#paint1_linear_15_239)"/>
<path d="M53.4535 32.3404C51.3838 32.3299 50.0919 31.8661 49.2871 31.312C48.4416 30.73 48.0267 29.6854 48.2037 28.6742C49.0713 23.7166 51.802 19.4006 55.6476 16.472C54.6465 15.7097 53.5704 15.0417 52.4313 14.4808C48.2604 18.0608 45.3722 23.0948 44.5605 28.7887C44.4014 29.9052 43.747 30.9063 42.7703 31.4707C41.9417 31.9495 40.7217 32.3299 38.9348 32.34C37.9617 32.3456 37.1103 33.086 37.0722 34.0587C37.0322 35.0801 37.8486 35.9206 38.861 35.9206C42.7846 35.9206 44.9925 34.5864 46.1937 33.3601C47.3949 34.5862 49.6028 35.9206 53.5264 35.9206C54.5383 35.9206 55.3542 35.0808 55.3152 34.0601C55.2776 33.0879 54.4267 32.3454 53.4535 32.3404Z" fill="#FD75BE"/>
<path d="M22.2281 67.7203C23.8178 72.7475 26.918 74.8658 29.3389 75.7586C30.7299 73.6821 31.6518 71.2661 31.9436 68.6607C32.0538 67.6758 32.9256 66.9577 33.9112 67.0619C34.9004 67.1662 35.6135 68.0571 35.5035 69.0455C34.8679 74.7563 31.7668 79.7316 27.2945 82.8877H16.0229C20.2216 82.8877 24.046 81.2616 26.9057 78.6089C24.1774 77.3196 20.6426 74.58 18.8143 68.7996C18.5165 67.8571 19.0388 66.851 19.9814 66.5529C20.9244 66.2556 21.9298 66.7779 22.2281 67.7203Z" fill="#FD75BE"/>
<path d="M7.44287 49.237C7.65701 50.4567 7.9821 51.6377 8.41061 52.7688C10.6761 51.5404 13.2693 50.8418 16.0228 50.8418C19.7045 50.8418 23.0988 52.0923 25.8048 54.189C26.513 54.7376 27.5217 54.6624 28.1552 54.0289C28.9139 53.2702 28.8476 52.0102 27.9991 51.3535C26.3457 50.0733 24.4821 49.052 22.4691 48.3496C24.1356 47.0239 26.5191 45.9596 29.9282 45.6878C30.9138 45.6093 31.6491 44.7467 31.5706 43.7613C31.4918 42.7759 30.6357 42.0367 29.6438 42.1189C23.8188 42.5832 20.3516 45.0024 18.3186 47.3993C17.5652 47.3112 16.7994 47.2627 16.0223 47.2627C12.9451 47.2625 10.0344 47.9733 7.44287 49.237Z" fill="#FD75BE"/>
<path d="M114.91 37.1091H111.265C110.777 35.3433 110.076 33.666 109.191 32.1061L111.77 29.5277C112.976 28.3209 112.976 26.3645 111.77 25.1577L107.75 21.1384C106.544 19.9316 104.587 19.9316 103.38 21.1384L100.802 23.7168C99.2421 22.8323 97.5647 22.1313 95.799 21.6429V17.9978C95.799 16.2913 94.4156 14.9077 92.7089 14.9077H87.0247C85.3181 14.9077 83.9346 16.291 83.9346 17.9978V21.6426C82.1688 22.1311 80.4914 22.832 78.9316 23.7166L76.3532 21.1382C75.1464 19.9314 73.19 19.9314 71.9832 21.1382L67.9639 25.1575C66.7571 26.3643 66.7571 28.3207 67.9639 29.5275L70.5423 32.1059C69.6577 33.6657 68.9568 35.3431 68.4683 37.1089H64.8235C63.117 37.1089 61.7334 38.4922 61.7334 40.199V45.8832C61.7334 47.5897 63.1167 48.9733 64.8235 48.9733H68.4683C68.9568 50.739 69.6577 52.4164 70.5423 53.9763L67.9639 56.5547C66.7571 57.7615 66.7571 59.7178 67.9639 60.9246L71.9832 64.9439C73.19 66.1507 75.1464 66.1507 76.3532 64.9439L78.9316 62.3656C80.4914 63.2501 82.1688 63.951 83.9346 64.4395V68.0843C83.9346 69.7909 85.3179 71.1744 87.0247 71.1744H92.7089C94.4154 71.1744 95.799 69.7911 95.799 68.0843V64.4395C97.5647 63.951 99.2421 63.2501 100.802 62.3656L103.38 64.9439C104.587 66.1507 106.544 66.1507 107.75 64.9439L111.77 60.9246C112.976 59.7178 112.976 57.7615 111.77 56.5547L109.191 53.9763C110.076 52.4164 110.777 50.739 111.265 48.9733H114.91C116.617 48.9733 118 47.5899 118 45.8832V40.199C118 38.4924 116.617 37.1091 114.91 37.1091ZM89.8668 54.1815C83.7141 54.1815 78.7263 49.1938 78.7263 43.0411C78.7263 36.8884 83.7141 31.9007 89.8668 31.9007C96.0195 31.9007 101.007 36.8884 101.007 43.0411C101.007 49.1938 96.0195 54.1815 89.8668 54.1815Z" fill="url(#paint2_radial_15_239)"/>
<path d="M105.214 38.0783C104.335 38.0783 103.493 37.5835 103.09 36.7373C102.503 35.5042 101.757 34.3639 100.872 33.3482C100.02 32.3692 100.122 30.8846 101.101 30.032C102.081 29.1797 103.565 29.2822 104.418 30.2612C105.583 31.5989 106.564 33.0981 107.335 34.7172C107.893 35.8895 107.395 37.2921 106.223 37.8499C105.896 38.0048 105.552 38.0783 105.214 38.0783Z" fill="#C7C5CB"/>
<path d="M95.496 29.3253C95.2377 29.3253 94.9754 29.2823 94.7177 29.192C94.0528 28.9588 93.3603 28.7722 92.6593 28.6375C91.3846 28.3926 90.5497 27.1601 90.7946 25.8854C91.0395 24.6104 92.2731 23.7762 93.5467 24.0207C94.474 24.1989 95.3917 24.4464 96.2741 24.7559C97.499 25.1856 98.1437 26.5271 97.7138 27.7523C97.3746 28.7198 96.4664 29.3253 95.496 29.3253Z" fill="#C7C5CB"/>
</g>
<defs>
<linearGradient id="paint0_linear_15_239" x1="68.3394" y1="77.684" x2="68.3394" y2="105.528" gradientUnits="userSpaceOnUse">
<stop offset="0.0223" stop-color="#8959C3"/>
<stop offset="1" stop-color="#A27CCF"/>
</linearGradient>
<linearGradient id="paint1_linear_15_239" x1="20.6634" y1="94.1553" x2="90.6318" y2="24.187" gradientUnits="userSpaceOnUse">
<stop stop-color="#FD86C8"/>
<stop offset="0.9788" stop-color="#FFB1DB"/>
</linearGradient>
<radialGradient id="paint2_radial_15_239" cx="0" cy="0" r="1" gradientUnits="userSpaceOnUse" gradientTransform="translate(89.8668 43.0411) scale(28.1334 28.1334)">
<stop offset="0.0223" stop-color="#C1BFC5"/>
<stop offset="1" stop-color="#8D889D"/>
</radialGradient>
<clipPath id="clip0_15_239">
<rect width="118" height="118" fill="white"/>
</clipPath>
</defs>
</svg>
