<svg width="50" height="50" viewBox="0 0 50 50" fill="none" xmlns="http://www.w3.org/2000/svg">
<rect width="49.2143" height="49.2143" rx="12" fill="#90C1BF"/>
<path d="M24.6073 15.5216C22.8103 15.5216 21.0537 16.0544 19.5595 17.0528C18.0654 18.0511 16.9009 19.4701 16.2132 21.1303C15.5255 22.7905 15.3456 24.6174 15.6961 26.3798C16.0467 28.1423 16.9121 29.7612 18.1827 31.0319C19.4534 32.3025 21.0723 33.1678 22.8347 33.5184C24.5972 33.869 26.424 33.6891 28.0842 33.0014C29.7444 32.3137 31.1634 31.1492 32.1618 29.655C33.1601 28.1609 33.693 26.4043 33.693 24.6073C33.6903 22.1984 32.7322 19.889 31.0289 18.1857C29.3256 16.4824 27.0161 15.5243 24.6073 15.5216ZM24.6073 30.6644C23.4093 30.6644 22.2382 30.3092 21.2421 29.6436C20.246 28.978 19.4697 28.032 19.0112 26.9253C18.5528 25.8185 18.4328 24.6006 18.6665 23.4256C18.9002 22.2506 19.4771 21.1713 20.3242 20.3242C21.1713 19.4771 22.2506 18.9002 23.4256 18.6665C24.6006 18.4328 25.8185 18.5528 26.9253 19.0112C28.032 19.4697 28.978 20.246 29.6436 21.2421C30.3092 22.2382 30.6644 23.4093 30.6644 24.6073C30.6626 26.2132 30.0239 27.7528 28.8883 28.8883C27.7528 30.0239 26.2132 30.6626 24.6073 30.6644ZM32.9359 5.67871H16.2787C13.4684 5.68192 10.7741 6.79973 8.78692 8.78692C6.79973 10.7741 5.68192 13.4684 5.67871 16.2787V32.9359C5.68192 35.7462 6.79973 38.4405 8.78692 40.4276C10.7741 42.4148 13.4684 43.5326 16.2787 43.5359H32.9359C35.7462 43.5326 38.4405 42.4148 40.4276 40.4276C42.4148 38.4405 43.5326 35.7462 43.5359 32.9359V16.2787C43.5326 13.4684 42.4148 10.7741 40.4276 8.78692C38.4405 6.79973 35.7462 5.68192 32.9359 5.67871ZM40.5073 32.9359C40.505 34.9432 39.7066 36.8677 38.2872 38.2872C36.8677 39.7066 34.9432 40.505 32.9359 40.5073H16.2787C14.2713 40.505 12.3468 39.7066 10.9274 38.2872C9.50796 36.8677 8.70954 34.9432 8.70728 32.9359V16.2787C8.70954 14.2713 9.50796 12.3468 10.9274 10.9274C12.3468 9.50796 14.2713 8.70954 16.2787 8.70728H32.9359C34.9432 8.70954 36.8677 9.50796 38.2872 10.9274C39.7066 12.3468 40.505 14.2713 40.5073 16.2787V32.9359ZM36.7216 14.7644C36.7216 15.2137 36.5884 15.6528 36.3388 16.0264C36.0892 16.3999 35.7344 16.691 35.3194 16.863C34.9043 17.0349 34.4476 17.0799 34.007 16.9922C33.5664 16.9046 33.1617 16.6882 32.844 16.3706C32.5263 16.0529 32.31 15.6482 32.2224 15.2076C32.1347 14.7669 32.1797 14.3102 32.3516 13.8952C32.5235 13.4801 32.8147 13.1254 33.1882 12.8758C33.5617 12.6262 34.0009 12.493 34.4501 12.493C35.0526 12.493 35.6303 12.7323 36.0563 13.1583C36.4823 13.5843 36.7216 14.162 36.7216 14.7644Z" fill="white"/>
</svg>
