<svg width="50" height="50" viewBox="0 0 50 50" fill="none" xmlns="http://www.w3.org/2000/svg">
<path d="M23.5208 25L30.8958 17.625C31.2838 17.2347 31.5016 16.7067 31.5016 16.1563C31.5016 15.6059 31.2838 15.0779 30.8958 14.6875C30.7022 14.4923 30.4717 14.3373 30.2179 14.2315C29.964 14.1257 29.6917 14.0713 29.4167 14.0713C29.1416 14.0713 28.8693 14.1257 28.6155 14.2315C28.3616 14.3373 28.1312 14.4923 27.9375 14.6875L19.1042 23.5209C18.9089 23.7145 18.7539 23.945 18.6481 24.1988C18.5424 24.4527 18.4879 24.725 18.4879 25C18.4879 25.2751 18.5424 25.5474 18.6481 25.8012C18.7539 26.0551 18.9089 26.2855 19.1042 26.4792L27.9375 35.4167C28.1322 35.6098 28.363 35.7626 28.6169 35.8662C28.8707 35.9699 29.1425 36.0225 29.4167 36.0209C29.6908 36.0225 29.9626 35.9699 30.2165 35.8662C30.4703 35.7626 30.7012 35.6098 30.8958 35.4167C31.2838 35.0264 31.5016 34.4983 31.5016 33.948C31.5016 33.3976 31.2838 32.8695 30.8958 32.4792L23.5208 25Z" fill="#222528"/>
</svg>
