<svg width="121" height="121" viewBox="0 0 121 121" fill="none" xmlns="http://www.w3.org/2000/svg">
<path d="M3.55668 108.55C12.6719 106.626 18.4178 101.04 18.4178 101.04H36.7276V113.789L29.5162 121H7.37373C4.72426 119.818 2.58338 117.769 0.956148 115.707C-1.09145 113.112 0.322223 109.233 3.55668 108.55Z" fill="url(#paint0_linear_40_334)"/>
<path d="M119.577 79.6792C118.212 74.4887 116.949 66.3331 116.949 53.9224H103.241L88.0488 87.6582L95.3481 102.434C100.812 102.434 105.236 101.608 108.807 100.348C117.241 97.3722 121.852 88.3285 119.577 79.6792Z" fill="url(#paint1_linear_40_334)"/>
<path d="M63.0239 107.845C33.2895 107.845 9.09863 83.6553 9.09863 53.9224C9.09863 24.1894 33.2897 0 63.0239 0C92.7581 0 116.949 24.1896 116.949 53.9224L63.0239 107.845Z" fill="url(#paint2_linear_40_334)"/>
<path d="M103.241 121C103.241 100.861 88.049 87.6583 88.049 87.6583L39.8134 91.5834C35.7348 90.0988 31.9465 88.3687 28.7045 86.7103C28.1162 86.4124 27.5502 86.1145 27.0016 85.8216C25.2515 84.8857 23.6951 83.997 22.3793 83.2151L11.5474 89.5109L9.86035 100.778C11.8487 101.999 14.4082 103.494 17.4094 105.075C21.1777 107.061 25.6484 109.181 30.5711 111.073C29.9182 114.099 29.5161 117.418 29.5161 121H103.241Z" fill="url(#paint3_linear_40_334)"/>
<path d="M18.4187 66.2029C25.2016 66.2029 30.7002 60.7043 30.7002 53.9214C30.7002 47.1385 25.2016 41.6399 18.4187 41.6399C11.6358 41.6399 6.13721 47.1385 6.13721 53.9214C6.13721 60.7043 11.6358 66.2029 18.4187 66.2029Z" fill="url(#paint4_radial_40_334)"/>
<path d="M107.63 66.2029C114.413 66.2029 119.911 60.7043 119.911 53.9214C119.911 47.1385 114.413 41.6399 107.63 41.6399C100.847 41.6399 95.3481 47.1385 95.3481 53.9214C95.3481 60.7043 100.847 66.2029 107.63 66.2029Z" fill="url(#paint5_radial_40_334)"/>
<path d="M48.6856 96.9473C53.069 92.5639 59.0887 91.1083 63.7431 92.8628C65.4973 97.5174 64.042 103.537 59.6585 107.92C55.9176 111.661 50.9853 113.27 46.7267 112.57C45.3422 112.343 44.2628 111.264 44.0355 109.879C43.3363 105.621 44.9447 100.688 48.6856 96.9473Z" fill="url(#paint6_linear_40_334)"/>
<path d="M63.7432 92.8626C65.4974 97.5172 64.042 103.537 59.6586 107.92C58.234 109.345 56.6362 110.458 54.9692 111.254C51.6027 108.774 49.4133 104.784 49.4133 100.292V96.2619C53.7187 92.4171 59.3411 91.2033 63.7432 92.8626Z" fill="#8959C3"/>
<path d="M62.3048 92.8627C66.9594 91.1084 72.9788 92.5638 77.3623 96.9472C81.1372 100.722 82.7408 105.71 81.9928 109.995C81.7663 111.293 80.7356 112.324 79.4376 112.55C75.1527 113.298 70.1645 111.695 66.3896 107.92C62.0059 103.537 60.5505 97.5173 62.3048 92.8627Z" fill="url(#paint7_linear_40_334)"/>
<path d="M62.305 92.8626C60.5508 97.5172 62.0061 103.537 66.3896 107.92C67.8141 109.345 69.412 110.458 71.079 111.254C74.4455 108.774 76.6348 104.784 76.6348 100.292V96.2619C72.3297 92.4171 66.7073 91.2033 62.305 92.8626Z" fill="#8959C3"/>
<path d="M70.3508 94.4607V100.292C70.3508 104.338 67.0705 107.619 63.0238 107.619C58.9773 107.619 55.6968 104.338 55.6968 100.292V94.4607H70.3508Z" fill="url(#paint8_linear_40_334)"/>
<path d="M102.581 33.2908C101.268 30.7788 98.5277 29.3376 95.7235 29.7503C92.2663 30.2591 88.6908 30.5264 85.0306 30.5264C69.2994 30.5264 55.1318 25.5975 45.2105 17.7221C42.8911 15.8808 39.6306 15.823 37.2164 17.5382C25.8399 25.6216 18.4177 38.906 18.4177 53.9223C18.4177 78.5545 38.3892 98.526 63.0241 98.526C87.6589 98.526 107.63 78.5545 107.63 53.9223C107.63 46.4786 105.806 39.4606 102.581 33.2908Z" fill="url(#paint9_linear_40_334)"/>
<path d="M90.4924 19.6956C88.6844 18.1412 86.5448 16.7046 84.132 15.4261C82.9029 14.7748 82.4346 13.2505 83.0859 12.0215C83.7372 10.7925 85.2605 10.3239 86.4905 10.9754C89.2335 12.4291 91.6851 14.078 93.7763 15.8764C94.8308 16.7832 94.9506 18.3735 94.0439 19.428C93.1405 20.479 91.5506 20.6055 90.4924 19.6956Z" fill="#FDE7CA"/>
<path d="M75.3891 11.7819C74.1292 11.3944 72.8399 11.0665 71.5567 10.8074C70.1931 10.5322 69.3109 9.20382 69.5862 7.84028C69.8614 6.47674 71.1893 5.59479 72.5533 5.86981C73.9993 6.1617 75.4518 6.53097 76.8703 6.96749C78.1999 7.37652 78.9459 8.78586 78.5368 10.1154C78.1287 11.4416 76.7206 12.1919 75.3891 11.7819Z" fill="#FDE7CA"/>
<path d="M5.21823 97.7471C5.45155 97.9135 7.10988 99.0875 9.86034 100.778L22.3793 83.2149C19.4823 81.4871 17.7545 80.2733 17.7024 80.2359C12.8716 76.7978 6.16405 77.9198 2.71845 82.7482C-0.732223 87.5817 0.387388 94.2967 5.21823 97.7471Z" fill="url(#paint10_linear_40_334)"/>
<path d="M93.1016 67.8805C95.9249 67.8805 98.2135 66.0413 98.2135 63.7725C98.2135 61.5038 95.9249 59.6646 93.1016 59.6646C90.2784 59.6646 87.9897 61.5038 87.9897 63.7725C87.9897 66.0413 90.2784 67.8805 93.1016 67.8805Z" fill="#FB99AC"/>
<path d="M32.9461 67.8805C35.7693 67.8805 38.058 66.0413 38.058 63.7725C38.058 61.5038 35.7693 59.6646 32.9461 59.6646C30.1229 59.6646 27.8342 61.5038 27.8342 63.7725C27.8342 66.0413 30.1229 67.8805 32.9461 67.8805Z" fill="#FB99AC"/>
<path d="M84.3379 63.7726C89.9361 63.7726 94.4742 59.2344 94.4742 53.6363C94.4742 48.0382 89.9361 43.5 84.3379 43.5C78.7398 43.5 74.2017 48.0382 74.2017 53.6363C74.2017 59.2344 78.7398 63.7726 84.3379 63.7726Z" fill="white"/>
<path d="M41.7098 63.7726C47.3079 63.7726 51.846 59.2344 51.846 53.6363C51.846 48.0382 47.3079 43.5 41.7098 43.5C36.1117 43.5 31.5735 48.0382 31.5735 53.6363C31.5735 59.2344 36.1117 63.7726 41.7098 63.7726Z" fill="white"/>
<path d="M84.3382 59.6776C87.6747 59.6776 90.3795 56.9728 90.3795 53.6363C90.3795 50.2998 87.6747 47.595 84.3382 47.595C81.0017 47.595 78.2969 50.2998 78.2969 53.6363C78.2969 56.9728 81.0017 59.6776 84.3382 59.6776Z" fill="#383842"/>
<path d="M41.71 59.6776C45.0466 59.6776 47.7513 56.9728 47.7513 53.6363C47.7513 50.2998 45.0466 47.595 41.71 47.595C38.3735 47.595 35.6687 50.2998 35.6687 53.6363C35.6687 56.9728 38.3735 59.6776 41.71 59.6776Z" fill="#383842"/>
<path d="M63.0241 63.5855C61.3503 63.5855 59.6766 62.9525 58.3114 61.6866C57.8233 61.2339 57.7943 60.4715 58.247 59.9834C58.6997 59.4953 59.4623 59.4669 59.9502 59.9188C61.7599 61.5969 64.2883 61.5974 66.0983 59.9188C66.5864 59.4669 67.3488 59.4951 67.8014 59.9834C68.2539 60.4715 68.2252 61.2339 67.7371 61.6866C66.3716 62.9525 64.6978 63.5855 63.0241 63.5855Z" fill="#383842"/>
<path d="M89.3314 107.619C90.3725 107.619 91.2166 108.463 91.2166 109.504V121H87.4463V109.504C87.446 108.463 88.2902 107.619 89.3314 107.619Z" fill="#FD75BE"/>
<defs>
<linearGradient id="paint0_linear_40_334" x1="-4.16623e-05" y1="111.02" x2="36.7276" y2="111.02" gradientUnits="userSpaceOnUse">
<stop stop-color="#A27CCF"/>
<stop offset="0.9777" stop-color="#8959C3"/>
</linearGradient>
<linearGradient id="paint1_linear_40_334" x1="88.0488" y1="78.178" x2="120.156" y2="78.178" gradientUnits="userSpaceOnUse">
<stop offset="0.000558036" stop-color="#F5AA3E"/>
<stop offset="0.9777" stop-color="#FAC986"/>
</linearGradient>
<linearGradient id="paint2_linear_40_334" x1="63.0239" y1="107.845" x2="63.0239" y2="0" gradientUnits="userSpaceOnUse">
<stop offset="0.000558036" stop-color="#F5AA3E"/>
<stop offset="0.9777" stop-color="#FAC986"/>
</linearGradient>
<linearGradient id="paint3_linear_40_334" x1="56.5507" y1="121" x2="56.5507" y2="83.2151" gradientUnits="userSpaceOnUse">
<stop offset="0.0212" stop-color="#FFB1DB"/>
<stop offset="1" stop-color="#FD86C8"/>
</linearGradient>
<radialGradient id="paint4_radial_40_334" cx="0" cy="0" r="1" gradientUnits="userSpaceOnUse" gradientTransform="translate(18.4187 53.9214) scale(12.2815 12.2815)">
<stop stop-color="#FDDACC"/>
<stop offset="0.9788" stop-color="#FDC8BB"/>
</radialGradient>
<radialGradient id="paint5_radial_40_334" cx="0" cy="0" r="1" gradientUnits="userSpaceOnUse" gradientTransform="translate(107.63 53.9214) scale(12.2815)">
<stop stop-color="#FDDACC"/>
<stop offset="0.9788" stop-color="#FDC8BB"/>
</radialGradient>
<linearGradient id="paint6_linear_40_334" x1="43.8759" y1="102.434" x2="64.4681" y2="102.434" gradientUnits="userSpaceOnUse">
<stop offset="0.0223" stop-color="#8959C3"/>
<stop offset="1" stop-color="#A27CCF"/>
</linearGradient>
<linearGradient id="paint7_linear_40_334" x1="61.5798" y1="102.434" x2="82.1719" y2="102.434" gradientUnits="userSpaceOnUse">
<stop stop-color="#A27CCF"/>
<stop offset="0.9777" stop-color="#8959C3"/>
</linearGradient>
<linearGradient id="paint8_linear_40_334" x1="63.024" y1="107.619" x2="63.024" y2="94.4607" gradientUnits="userSpaceOnUse">
<stop stop-color="#A27CCF"/>
<stop offset="0.9777" stop-color="#8959C3"/>
</linearGradient>
<linearGradient id="paint9_linear_40_334" x1="63.0241" y1="98.5262" x2="63.0241" y2="16.2949" gradientUnits="userSpaceOnUse">
<stop offset="0.0212" stop-color="#FDC8BB"/>
<stop offset="1" stop-color="#FDDACC"/>
</linearGradient>
<linearGradient id="paint10_linear_40_334" x1="0.71568" y1="89.5109" x2="22.3793" y2="89.5109" gradientUnits="userSpaceOnUse">
<stop offset="0.0212" stop-color="#FDC8BB"/>
<stop offset="1" stop-color="#FDDACC"/>
</linearGradient>
</defs>
</svg>
