<svg width="45" height="45" viewBox="0 0 45 45" fill="none" xmlns="http://www.w3.org/2000/svg">
<rect width="45" height="45" rx="12" fill="white"/>
<path d="M27.8743 23.1239C29.4266 21.9026 30.5596 20.2279 31.1157 18.3327C31.6719 16.4374 31.6235 14.416 30.9773 12.5496C30.3311 10.6831 29.1192 9.06454 27.5102 7.91894C25.9013 6.77334 23.9753 6.15771 22.0001 6.15771C20.025 6.15771 18.099 6.77334 16.49 7.91894C14.881 9.06454 13.6692 10.6831 13.023 12.5496C12.3767 14.416 12.3283 16.4374 12.8845 18.3327C13.4406 20.2279 14.5737 21.9026 16.1259 23.1239C13.4661 24.1896 11.1452 25.9571 9.41086 28.238C7.67649 30.5188 6.59359 33.2277 6.27762 36.0756C6.25474 36.2835 6.27305 36.4939 6.33149 36.6948C6.38993 36.8956 6.48736 37.083 6.61821 37.2462C6.88248 37.5758 7.26686 37.7869 7.68678 37.8331C8.10671 37.8793 8.52779 37.7568 8.85738 37.4925C9.18698 37.2282 9.39809 36.8438 9.44428 36.4239C9.79196 33.3288 11.2678 30.4703 13.5898 28.3945C15.9118 26.3187 18.9172 25.1712 22.0318 25.1712C25.1464 25.1712 28.1518 26.3187 30.4738 28.3945C32.7958 30.4703 34.2716 33.3288 34.6193 36.4239C34.6623 36.813 34.848 37.1723 35.1404 37.4325C35.4328 37.6928 35.8112 37.8355 36.2026 37.8331H36.3768C36.7918 37.7853 37.1712 37.5755 37.4322 37.2492C37.6932 36.923 37.8146 36.5068 37.7701 36.0914C37.4526 33.2354 36.3639 30.5196 34.6206 28.2352C32.8773 25.9508 30.5452 24.1839 27.8743 23.1239ZM22.0001 21.9998C20.7475 21.9998 19.523 21.6283 18.4815 20.9324C17.44 20.2365 16.6282 19.2473 16.1489 18.0901C15.6695 16.9328 15.5441 15.6594 15.7885 14.4308C16.0328 13.2023 16.636 12.0738 17.5218 11.1881C18.4075 10.3023 19.536 9.69915 20.7645 9.45478C21.9931 9.2104 23.2665 9.33582 24.4238 9.81518C25.581 10.2945 26.5702 11.1063 27.2661 12.1478C27.962 13.1893 28.3335 14.4138 28.3335 15.6664C28.3335 17.3461 27.6662 18.957 26.4785 20.1448C25.2907 21.3325 23.6798 21.9998 22.0001 21.9998Z" fill="#F2B236"/>
</svg>
