<svg width="116" height="116" viewBox="0 0 116 116" fill="none" xmlns="http://www.w3.org/2000/svg">
<g clip-path="url(#clip0_15_255)">
<path d="M0 58.0001V100.352C0 108.994 7.00598 116 15.6482 116H58L63.2403 86.7917L58 58.0001L29 51.8851L0 58.0001Z" fill="url(#paint0_radial_15_255)"/>
<path d="M100.352 0H58.0001L55.1641 29L58.0001 58L87.0001 63.2339L116 58V15.6482C116 7.00598 108.994 0 100.352 0V0Z" fill="url(#paint1_linear_15_255)"/>
<path d="M15.6482 0C7.00598 0 0 7.00598 0 15.6482V58H58V0H15.6482Z" fill="url(#paint2_linear_15_255)"/>
<path d="M8.69158 37.2308C10.5977 37.2308 12.1429 35.989 12.1429 34.4572C12.1429 32.9254 10.5977 31.6836 8.69158 31.6836C6.78545 31.6836 5.24023 32.9254 5.24023 34.4572C5.24023 35.989 6.78545 37.2308 8.69158 37.2308Z" fill="#FB99AC"/>
<path d="M49.3083 37.2308C51.2144 37.2308 52.7596 35.989 52.7596 34.4572C52.7596 32.9254 51.2144 31.6836 49.3083 31.6836C47.4022 31.6836 45.8569 32.9254 45.8569 34.4572C45.8569 35.989 47.4022 37.2308 49.3083 37.2308Z" fill="#FB99AC"/>
<path d="M14.6086 34.4572C18.3885 34.4572 21.4526 31.393 21.4526 27.6132C21.4526 23.8333 18.3885 20.7692 14.6086 20.7692C10.8288 20.7692 7.76465 23.8333 7.76465 27.6132C7.76465 31.393 10.8288 34.4572 14.6086 34.4572Z" fill="white"/>
<path d="M43.3914 34.4572C47.1712 34.4572 50.2354 31.393 50.2354 27.6132C50.2354 23.8333 47.1712 20.7692 43.3914 20.7692C39.6115 20.7692 36.5474 23.8333 36.5474 27.6132C36.5474 31.393 39.6115 34.4572 43.3914 34.4572Z" fill="white"/>
<path d="M14.6087 31.6922C16.8615 31.6922 18.6877 29.866 18.6877 27.6132C18.6877 25.3605 16.8615 23.5343 14.6087 23.5343C12.356 23.5343 10.5298 25.3605 10.5298 27.6132C10.5298 29.866 12.356 31.6922 14.6087 31.6922Z" fill="#383842"/>
<path d="M43.391 31.6922C45.6437 31.6922 47.4699 29.866 47.4699 27.6132C47.4699 25.3605 45.6437 23.5343 43.391 23.5343C41.1382 23.5343 39.312 25.3605 39.312 27.6132C39.312 29.866 41.1382 31.6922 43.391 31.6922Z" fill="#383842"/>
<path d="M28.9999 34.6752C27.7874 34.6752 26.5747 34.2168 25.5857 33.2996C25.1178 32.8656 25.0901 32.1348 25.5238 31.6668C25.958 31.1989 26.6887 31.1714 27.1566 31.6049C28.242 32.6112 29.7576 32.6112 30.8429 31.6049C31.3104 31.1716 32.0418 31.1989 32.4757 31.6668C32.9095 32.1348 32.882 32.8656 32.4138 33.2996C31.425 34.2165 30.2123 34.6752 28.9999 34.6752Z" fill="#383842"/>
<path d="M58 58V116H100.352C108.994 116 116 108.994 116 100.352V58H58Z" fill="url(#paint3_linear_15_255)"/>
<path d="M100.352 111.378C99.0758 111.378 98.041 110.344 98.041 109.068C98.041 107.792 99.0758 106.757 100.352 106.757C101.041 106.757 101.731 106.642 102.401 106.416C103.61 106.007 104.922 106.657 105.33 107.866C105.738 109.075 105.089 110.386 103.88 110.795C102.732 111.182 101.545 111.378 100.352 111.378Z" fill="#FDB0BF"/>
<path d="M107.728 105.535C106.531 105.092 105.92 103.762 106.363 102.565C106.549 102.064 106.67 101.537 106.725 100.998C106.853 99.728 107.985 98.8053 109.256 98.9315C110.526 99.0599 111.451 100.193 111.323 101.463C111.229 102.391 111.018 103.302 110.697 104.17C110.256 105.361 108.93 105.98 107.728 105.535Z" fill="#FDB0BF"/>
<path d="M66.6916 37.2307C68.5977 37.2307 70.1429 35.9889 70.1429 34.4571C70.1429 32.9253 68.5977 31.6835 66.6916 31.6835C64.7855 31.6835 63.2402 32.9253 63.2402 34.4571C63.2402 35.9889 64.7855 37.2307 66.6916 37.2307Z" fill="#FB99AC"/>
<path d="M107.308 37.2307C109.214 37.2307 110.76 35.9889 110.76 34.4571C110.76 32.9253 109.214 31.6835 107.308 31.6835C105.402 31.6835 103.857 32.9253 103.857 34.4571C103.857 35.9889 105.402 37.2307 107.308 37.2307Z" fill="#FB99AC"/>
<path d="M72.6087 34.4571C76.3836 34.4571 79.4439 31.3968 79.4439 27.6218C79.4439 23.8469 76.3836 20.7866 72.6087 20.7866C68.8337 20.7866 65.7734 23.8469 65.7734 27.6218C65.7734 31.3968 68.8337 34.4571 72.6087 34.4571Z" fill="#D6D5D8"/>
<path d="M65.7734 27.9565C65.9523 31.5768 68.944 34.4572 72.6087 34.4572C76.2733 34.4572 79.265 31.5768 79.4439 27.9565H65.7734Z" fill="white"/>
<path d="M68.5449 27.9565C68.7194 30.0485 70.4714 31.6921 72.6086 31.6921C74.7456 31.6921 76.4976 30.0485 76.6721 27.9565H68.5449Z" fill="#383842"/>
<path d="M101.391 34.4571C105.166 34.4571 108.226 31.3968 108.226 27.6218C108.226 23.8469 105.166 20.7866 101.391 20.7866C97.6159 20.7866 94.5557 23.8469 94.5557 27.6218C94.5557 31.3968 97.6159 34.4571 101.391 34.4571Z" fill="#D6D5D8"/>
<path d="M94.5557 27.9565C94.7345 31.5768 97.7263 34.4572 101.391 34.4572C105.056 34.4572 108.047 31.5768 108.226 27.9565H94.5557Z" fill="white"/>
<path d="M97.3271 27.9565C97.5016 30.0485 99.2536 31.6921 101.391 31.6921C103.528 31.6921 105.28 30.0485 105.454 27.9565H97.3271Z" fill="#383842"/>
<path d="M89.628 35.2534C89.2065 35.2534 88.7839 35.1005 88.45 34.7913C87.5825 33.9872 86.4168 33.9872 85.5493 34.7913C84.8468 35.4418 83.7506 35.4004 83.0999 34.6989C82.4492 33.9969 82.4906 32.9004 83.1923 32.2495C85.3984 30.2044 88.6004 30.2044 90.8065 32.2495C91.5083 32.9002 91.5499 33.9969 90.8989 34.6989C90.5579 35.067 90.0936 35.2534 89.628 35.2534Z" fill="#383842"/>
<path d="M66.6916 95.2307C68.5977 95.2307 70.1429 93.9889 70.1429 92.4571C70.1429 90.9253 68.5977 89.6835 66.6916 89.6835C64.7855 89.6835 63.2402 90.9253 63.2402 92.4571C63.2402 93.9889 64.7855 95.2307 66.6916 95.2307Z" fill="#FB99AC"/>
<path d="M107.308 95.2307C109.214 95.2307 110.76 93.9889 110.76 92.4571C110.76 90.9253 109.214 89.6835 107.308 89.6835C105.402 89.6835 103.857 90.9253 103.857 92.4571C103.857 93.9889 105.402 95.2307 107.308 95.2307Z" fill="#FB99AC"/>
<path d="M72.6087 92.457C76.3885 92.457 79.4527 89.3929 79.4527 85.613C79.4527 81.8332 76.3885 78.769 72.6087 78.769C68.8288 78.769 65.7646 81.8332 65.7646 85.613C65.7646 89.3929 68.8288 92.457 72.6087 92.457Z" fill="white"/>
<path d="M101.391 92.457C105.171 92.457 108.235 89.3929 108.235 85.613C108.235 81.8332 105.171 78.769 101.391 78.769C97.6115 78.769 94.5474 81.8332 94.5474 85.613C94.5474 89.3929 97.6115 92.457 101.391 92.457Z" fill="white"/>
<path d="M74.8698 88.0234C74.2581 88.0236 73.6649 87.6989 73.3495 87.125C73.1323 86.7296 72.7591 86.6868 72.6089 86.6868C72.459 86.6871 72.086 86.7298 71.8688 87.1247C71.4078 87.9638 70.3536 88.2697 69.5153 87.8087C68.6765 87.3477 68.3703 86.294 68.8313 85.4552C69.5885 84.0771 71.0362 83.2209 72.6089 83.2207C74.1816 83.2207 75.6291 84.0768 76.387 85.455C76.848 86.2938 76.5421 87.3473 75.7033 87.8087C75.4382 87.9543 75.1521 88.0234 74.8698 88.0234Z" fill="#383842"/>
<path d="M99.1301 88.0234C98.8477 88.0234 98.5617 87.9543 98.2969 87.8087C97.458 87.3475 97.1521 86.2938 97.6131 85.455C98.3706 84.0768 99.8183 83.2207 101.391 83.2207H101.391C102.964 83.2209 104.411 84.0771 105.169 85.4552C105.63 86.294 105.324 87.3475 104.485 87.8087C103.647 88.2699 102.593 87.964 102.131 87.1247C101.914 86.7298 101.541 86.6871 101.391 86.6868C101.241 86.6868 100.868 86.7296 100.651 87.125C100.335 87.6987 99.742 88.0234 99.1301 88.0234Z" fill="#383842"/>
<path d="M89.6968 94.8109H84.3031C82.7992 94.8109 81.5801 93.5917 81.5801 92.0879C81.5801 90.584 82.7992 89.3649 84.3031 89.3649H89.6968C91.2007 89.3649 92.4198 90.584 92.4198 92.0879C92.4198 93.5917 91.2007 94.8109 89.6968 94.8109Z" fill="#383842"/>
<path d="M8.69158 95.2307C10.5977 95.2307 12.1429 93.9889 12.1429 92.4571C12.1429 90.9253 10.5977 89.6835 8.69158 89.6835C6.78545 89.6835 5.24023 90.9253 5.24023 92.4571C5.24023 93.9889 6.78545 95.2307 8.69158 95.2307Z" fill="#FB99AC"/>
<path d="M49.3083 95.2307C51.2144 95.2307 52.7596 93.9889 52.7596 92.4571C52.7596 90.9253 51.2144 89.6835 49.3083 89.6835C47.4022 89.6835 45.8569 90.9253 45.8569 92.4571C45.8569 93.9889 47.4022 95.2307 49.3083 95.2307Z" fill="#FB99AC"/>
<path d="M14.6086 92.457C18.3885 92.457 21.4526 89.3929 21.4526 85.613C21.4526 81.8332 18.3885 78.769 14.6086 78.769C10.8288 78.769 7.76465 81.8332 7.76465 85.613C7.76465 89.3929 10.8288 92.457 14.6086 92.457Z" fill="white"/>
<path d="M21.3255 86.5768C21.8436 84.3849 20.4868 82.188 18.2948 81.6698C16.1029 81.1517 13.906 82.5086 13.3879 84.7005C12.8697 86.8924 14.2266 89.0893 16.4185 89.6075C18.6104 90.1256 20.8074 88.7687 21.3255 86.5768Z" fill="#383842"/>
<path d="M43.3914 92.457C47.1712 92.457 50.2354 89.3929 50.2354 85.613C50.2354 81.8332 47.1712 78.769 43.3914 78.769C39.6115 78.769 36.5474 81.8332 36.5474 85.613C36.5474 89.3929 39.6115 92.457 43.3914 92.457Z" fill="white"/>
<path d="M49.0113 88.4927C50.604 86.9 50.604 84.3178 49.0113 82.7251C47.4186 81.1324 44.8364 81.1324 43.2437 82.7251C41.651 84.3178 41.651 86.9 43.2437 88.4927C44.8364 90.0854 47.4186 90.0854 49.0113 88.4927Z" fill="#383842"/>
<path d="M28.9997 94.8106C30.6909 94.8106 32.0619 93.0155 32.0619 90.801C32.0619 88.5866 30.6909 86.7914 28.9997 86.7914C27.3085 86.7914 25.9375 88.5866 25.9375 90.801C25.9375 93.0155 27.3085 94.8106 28.9997 94.8106Z" fill="#383842"/>
<path d="M109.068 17.9589C107.792 17.9589 106.758 16.9253 106.757 15.6496C106.757 15.0744 106.681 14.5062 106.532 13.9606C106.195 12.7295 106.92 11.4588 108.151 11.1221C109.382 10.7861 110.653 11.5105 110.989 12.7417C111.247 13.6834 111.378 14.6608 111.378 15.6468C111.379 16.923 110.345 17.958 109.069 17.9589C109.069 17.9589 109.068 17.9589 109.068 17.9589Z" fill="#D3C1E7"/>
<path d="M103.099 9.86504C102.242 9.45881 101.292 9.24391 100.35 9.24322C99.0739 9.24229 98.0401 8.20684 98.041 6.93061C98.0419 5.65507 99.0762 4.6217 100.352 4.6217H100.354C101.974 4.62286 103.608 4.99189 105.079 5.68858C106.232 6.23507 106.724 7.61298 106.177 8.76628C105.633 9.9138 104.259 10.4138 103.099 9.86504Z" fill="#D3C1E7"/>
</g>
<defs>
<radialGradient id="paint0_radial_15_255" cx="0" cy="0" r="1" gradientUnits="userSpaceOnUse" gradientTransform="translate(31.6202 83.9427) scale(31.8397 31.8397)">
<stop offset="0.0223" stop-color="#F7F0A9"/>
<stop offset="0.9994" stop-color="#F4E46A"/>
</radialGradient>
<linearGradient id="paint1_linear_15_255" x1="55.1641" y1="31.6169" x2="116" y2="31.6169" gradientUnits="userSpaceOnUse">
<stop stop-color="#A27CCF"/>
<stop offset="0.9777" stop-color="#8959C3"/>
</linearGradient>
<linearGradient id="paint2_linear_15_255" x1="0" y1="29" x2="58" y2="29" gradientUnits="userSpaceOnUse">
<stop offset="0.0206" stop-color="#77E4D3"/>
<stop offset="1" stop-color="#01C2A0"/>
</linearGradient>
<linearGradient id="paint3_linear_15_255" x1="87" y1="116" x2="87" y2="58" gradientUnits="userSpaceOnUse">
<stop stop-color="#FD869C"/>
<stop offset="0.9788" stop-color="#F3385D"/>
</linearGradient>
<clipPath id="clip0_15_255">
<rect width="116" height="116" fill="white"/>
</clipPath>
</defs>
</svg>
