<svg width="45" height="46" viewBox="0 0 45 46" fill="none" xmlns="http://www.w3.org/2000/svg">
<rect width="45" height="45" rx="12" fill="white"/>
<path d="M16.875 36.4167C16.3558 36.4167 15.8483 36.5853 15.4166 36.9012C14.9849 37.2171 14.6485 37.6661 14.4498 38.1915C14.2511 38.7168 14.1992 39.2949 14.3004 39.8526C14.4017 40.4102 14.6517 40.9225 15.0188 41.3246C15.386 41.7267 15.8537 42.0005 16.3629 42.1114C16.8721 42.2224 17.3999 42.1654 17.8795 41.9478C18.3592 41.7302 18.7692 41.3617 19.0576 40.8889C19.346 40.4161 19.5 39.8603 19.5 39.2917C19.5 38.5292 19.2234 37.7979 18.7312 37.2587C18.2389 36.7196 17.5712 36.4167 16.875 36.4167ZM35.25 30.6667H14.25C13.7859 30.6667 13.3408 30.4647 13.0126 30.1053C12.6844 29.7458 12.5 29.2583 12.5 28.75C12.5 28.2417 12.6844 27.7542 13.0126 27.3947C13.3408 27.0353 13.7859 26.8333 14.25 26.8333H29.1092C30.2494 26.8294 31.3576 26.4209 32.2679 25.669C33.1781 24.917 33.8413 23.8622 34.158 22.6627L36.9317 12.0252C37.0059 11.7401 37.0187 11.4401 36.9691 11.1487C36.9195 10.8573 36.8088 10.5824 36.6458 10.3458C36.4828 10.1091 36.272 9.91711 36.0298 9.78481C35.7876 9.65252 35.5206 9.58355 35.25 9.58333H13.795C13.4324 8.46595 12.764 7.49825 11.8808 6.81224C10.9976 6.12622 9.94273 5.75528 8.86 5.75H7.25C6.78587 5.75 6.34075 5.95193 6.01256 6.31138C5.68437 6.67082 5.5 7.15834 5.5 7.66667C5.5 8.175 5.68437 8.66251 6.01256 9.02195C6.34075 9.3814 6.78587 9.58333 7.25 9.58333H8.86175C9.24177 9.58466 9.61117 9.72076 9.91465 9.97126C10.2181 10.2218 10.4394 10.5732 10.5452 10.9729L10.8165 12.0175V12.0271L13.6882 23.0326C12.3515 23.1891 11.1206 23.9013 10.2491 25.0223C9.37754 26.1433 8.93187 27.5878 9.00389 29.0581C9.07591 30.5283 9.66014 31.9123 10.6362 32.9247C11.6122 33.9372 12.9057 34.501 14.25 34.5H35.25C35.7141 34.5 36.1592 34.2981 36.4874 33.9386C36.8156 33.5792 37 33.0917 37 32.5833C37 32.075 36.8156 31.5875 36.4874 31.228C36.1592 30.8686 35.7141 30.6667 35.25 30.6667ZM32.9295 13.4167L30.7945 21.6085C30.6889 22.0089 30.4675 22.361 30.1636 22.6119C29.8598 22.8628 29.4898 22.999 29.1092 23H17.3195L16.8732 21.2903L14.8205 13.4167H32.9295ZM30.875 36.4167C30.3558 36.4167 29.8483 36.5853 29.4166 36.9012C28.9849 37.2171 28.6485 37.6661 28.4498 38.1915C28.2511 38.7168 28.1991 39.2949 28.3004 39.8526C28.4017 40.4102 28.6517 40.9225 29.0188 41.3246C29.386 41.7267 29.8537 42.0005 30.3629 42.1114C30.8721 42.2224 31.3999 42.1654 31.8795 41.9478C32.3592 41.7302 32.7692 41.3617 33.0576 40.8889C33.346 40.4161 33.5 39.8603 33.5 39.2917C33.5 38.5292 33.2234 37.7979 32.7311 37.2587C32.2389 36.7196 31.5712 36.4167 30.875 36.4167Z" fill="#F2B236"/>
</svg>
