<svg width="290" height="47" viewBox="0 0 290 47" fill="none" xmlns="http://www.w3.org/2000/svg">
<g clip-path="url(#clip0_314_1709)">
<path d="M82.7917 34.6785C82.5196 34.2406 82.1518 34.0217 81.6833 34.0217C81.1089 34.0217 80.6202 34.2762 80.2272 34.7854C78.7158 36.6744 76.8618 38.1764 74.6702 39.2812C72.4736 40.3912 70.5339 40.9462 68.8411 40.9462C66.6092 40.9462 65.4957 40.0399 65.4957 38.2222C65.4957 36.6234 66.2061 35.0145 67.6269 33.3954C69.0476 31.7763 71.5012 29.6073 74.9926 26.8782C76.2874 25.8599 76.9323 24.5158 76.9323 22.8457C76.9323 22.1176 76.7509 21.5729 76.3932 21.2114C76.0355 20.8499 75.5468 20.6666 74.9372 20.6666C74.4687 20.6666 73.7129 20.8855 72.67 21.3234C72.5239 21.359 72.2116 21.471 71.7279 21.6492C71.2442 21.8325 70.6951 21.9955 70.0804 22.138C69.4708 22.2857 68.8562 22.357 68.2466 22.357C66.987 22.357 66.06 22.1482 65.4706 21.7307C64.876 21.3132 64.3823 20.6666 63.9893 19.7959C63.3445 18.3041 62.2109 17.5607 60.5886 17.5607C58.3214 17.5607 56.8453 18.7776 56.1651 21.2164C55.4094 23.9404 54.6789 26.1349 53.9786 27.7845C53.2783 29.4393 52.5326 30.9362 51.7416 32.2855C50.9607 33.6347 49.7919 35.2029 48.2754 36.9646C47.5247 37.7232 46.8345 38.3291 46.2148 38.7721C45.0812 39.5714 43.9225 39.9737 42.7335 39.9737C41.4739 39.9737 40.4965 39.5918 39.7912 38.8281C39.0909 38.0644 38.7382 36.9188 38.7382 35.3913C38.7382 34.0828 38.9196 32.5197 39.2773 30.702L42.5672 15.1066C43.1768 12.4183 43.5547 9.80121 43.7008 7.25544L49.152 7.96317C49.3687 7.99881 49.671 8.01917 50.069 8.01917C51.1471 8.01917 51.9583 7.73914 52.4974 7.17398C53.0364 6.60882 53.3085 5.78399 53.3085 4.6944C53.3085 3.96631 53.0667 3.32478 52.583 2.75961C52.0993 2.19445 51.2983 1.82277 50.1798 1.63948C43.4136 0.544795 36.5063 0 29.458 0C22.6615 0 17.1095 0.437872 12.812 1.30853C8.51445 2.17918 5.30515 3.55389 3.17906 5.42758C1.06305 7.29618 0 9.78085 0 12.8663C0 14.3225 0.231754 15.6208 0.700301 16.7664C1.16885 17.912 1.75831 18.7929 2.47876 19.4089C2.87677 19.7704 3.37555 19.9537 3.9902 19.9537C4.85172 19.9537 5.67294 19.6533 6.44377 19.0525C7.21461 18.4517 7.60254 17.7898 7.60254 17.0617C7.60254 16.6646 7.51186 16.3337 7.33048 16.0791C6.72087 15.1321 6.41354 14.0272 6.41354 12.7543C6.41354 11.1912 7.15919 9.95396 8.65048 9.04767C10.1418 8.14137 12.5601 7.48456 15.9054 7.08742L15.3663 9.70447C14.8272 12.3572 14.2881 15.1219 13.7491 17.9935C13.21 20.8651 12.7062 23.808 12.2376 26.8273C12.021 28.4617 11.7137 30.3914 11.3207 32.6062C10.963 34.8261 10.6456 36.9391 10.3786 38.9605C10.1065 40.9767 9.9755 42.4227 9.9755 43.2934C9.9755 44.2404 10.2979 45.0041 10.9479 45.5846C11.5978 46.165 12.5147 46.4552 13.6987 46.4552C14.8121 46.4552 15.7643 46.1752 16.5603 45.61C17.3513 45.0449 17.7846 44.2404 17.8551 43.1813C18.0013 41.1804 18.2884 38.5582 18.7167 35.3047C19.1499 32.0512 19.5631 29.1898 19.956 26.7153C21.1047 19.9181 22.329 13.2125 23.6238 6.59354C24.4853 6.5579 25.891 6.53754 27.8307 6.53754C31.0702 6.53754 33.8714 6.59354 36.2494 6.70047C36.1033 8.55379 35.5289 11.9906 34.5213 17.0057L32.5262 26.9852C31.6697 31.2773 31.2364 34.3883 31.2364 36.3129C31.2364 39.4034 32.0828 41.8677 33.7706 43.7007C35.4584 45.5387 37.8364 46.4552 40.8945 46.4552C42.9451 46.4552 44.8797 45.9308 46.6934 44.8717C48.5072 43.8178 50.336 42.1478 52.1699 39.8566C52.2253 39.7904 52.2656 39.7089 52.316 39.6325C52.7442 39.1641 53.1573 38.7008 53.5453 38.2476C54.6789 36.9238 55.8931 35.2029 57.1879 33.095C58.6237 30.7682 59.7976 27.5707 60.6944 23.4975C61.1629 24.7347 61.8179 25.6614 62.6643 26.2774C63.5107 26.8935 64.5083 27.2041 65.657 27.2041C66.6293 27.2041 67.4354 27.0768 68.0853 26.8222C65.0625 28.9301 62.75 30.9209 61.1529 32.7946C59.5507 34.6683 58.7497 36.8373 58.7497 39.3118C58.7497 41.8575 59.5507 43.772 61.1529 45.0652C62.755 46.3534 65.0826 47 68.1408 47C70.6951 47 73.2494 46.3737 75.8038 45.1212C78.3581 43.8687 80.4792 42.1121 82.172 39.8617C82.8521 38.9554 83.1947 37.8251 83.1947 36.4809C83.1947 35.7121 83.0587 35.1113 82.7917 34.6785Z" fill="white"/>
<path d="M103.941 35.2233C104.214 35.6611 104.345 36.2568 104.345 37.0206C104.345 38.4767 104.002 39.602 103.322 40.4014C101.992 42.0357 100.112 43.5479 97.6841 44.9277C95.2557 46.3075 92.656 47 89.8901 47C86.1115 47 83.1793 45.9664 81.0935 43.8941C79.0077 41.8219 77.9648 38.9859 77.9648 35.3862C77.9648 32.8761 78.4838 30.5441 79.5317 28.3802C80.5746 26.2163 82.0205 24.5005 83.8746 23.2276C85.7286 21.9547 87.8194 21.3183 90.1622 21.3183C92.248 21.3183 93.9206 21.9445 95.1802 23.197C96.4397 24.4496 97.0695 26.1501 97.0695 28.2937C97.0695 30.8038 96.1777 32.9575 94.3992 34.7548C92.6208 36.5522 89.608 37.9829 85.3608 39.0368C86.2576 40.7068 87.9706 41.5469 90.4846 41.5469C92.1019 41.5469 93.9458 40.9767 96.0165 39.8311C98.0821 38.6855 99.8757 37.1886 101.387 35.3353C101.82 34.8261 102.304 34.5715 102.843 34.5715C103.302 34.5665 103.669 34.7854 103.941 35.2233ZM82.5496 16.7664C81.8996 16.13 81.5772 15.1422 81.5772 13.793C81.5772 12.3419 81.9651 11.2014 82.736 10.3867C83.5068 9.56699 84.5447 9.15967 85.8395 9.15967C86.9881 9.15967 87.89 9.48044 88.5349 10.1118C89.1797 10.7482 89.5072 11.7411 89.5072 13.0852C89.5072 14.5414 89.1193 15.6768 88.3484 16.4915C87.5726 17.3112 86.5398 17.7185 85.2449 17.7185C84.0912 17.7185 83.1944 17.4029 82.5496 16.7664ZM85.8646 29.0065C84.9477 30.5696 84.4892 32.4586 84.4892 34.6785V34.7854C86.6103 34.2762 88.2829 33.5125 89.5072 32.4942C90.7315 31.4759 91.3411 30.2946 91.3411 28.9505C91.3411 28.258 91.1547 27.7081 90.7768 27.2855C90.399 26.868 89.8851 26.6593 89.2402 26.6593C87.9051 26.6644 86.7816 27.4434 85.8646 29.0065ZM93.7695 16.7664C93.1246 16.13 92.7971 15.1422 92.7971 13.793C92.7971 12.3419 93.1851 11.2014 93.9559 10.3867C94.7267 9.56699 95.7646 9.15967 97.0594 9.15967C98.2081 9.15967 99.1099 9.48044 99.7548 10.1118C100.405 10.7482 100.727 11.7411 100.727 13.0852C100.727 14.5414 100.339 15.6768 99.5684 16.4915C98.7925 17.3112 97.7597 17.7185 96.4649 17.7185C95.3162 17.7185 94.4194 17.4029 93.7695 16.7664Z" fill="white"/>
<path d="M132.911 35.2234C133.178 35.6612 133.314 36.2569 133.314 37.0207C133.314 38.4769 132.971 39.6021 132.291 40.4015C131.102 41.8169 130.069 42.9574 129.188 43.8077C128.306 44.6631 127.228 45.4064 125.948 46.0429C124.673 46.6793 123.222 46.995 121.605 46.995C119.484 46.995 117.973 46.1498 117.071 44.4594C116.174 42.769 115.721 40.2182 115.721 36.7966C115.721 35.091 115.791 33.4362 115.937 31.8324H115.832C114.391 36.6694 112.622 40.3913 110.516 43.0083C108.41 45.6254 106.012 46.9339 103.312 46.9339C101.478 46.9339 100.037 46.2618 98.9941 44.9177C97.9512 43.5735 97.4272 41.8831 97.4272 39.8465C97.4272 38.0288 97.8404 36.5573 98.6666 35.4321C99.4929 34.3069 100.662 33.7417 102.173 33.7417C102.858 33.7417 103.367 33.8894 103.71 34.1796C104.052 34.4698 104.188 34.872 104.113 35.3812C103.826 37.1276 103.68 38.3241 103.68 38.9809C103.68 40.2894 104.002 40.9463 104.652 40.9463C105.01 40.9463 105.418 40.6713 105.866 40.1265C106.315 39.5817 107.08 38.2528 108.158 36.1449C108.985 34.5462 109.841 32.7489 110.723 30.7479C111.605 28.752 112.33 26.97 112.909 25.4069C113.484 23.8794 114.149 22.8356 114.905 22.2705C115.66 21.7053 116.738 21.4253 118.144 21.4253C119.509 21.4253 120.517 21.7002 121.167 22.245C121.812 22.7898 122.139 23.6808 122.139 24.9181L122.034 28.9506C121.887 32.0055 121.817 34.2051 121.817 35.5492C121.817 39.3679 122.588 41.2721 124.134 41.2721C124.784 41.2721 125.419 40.9615 126.049 40.3455C126.679 39.7294 127.656 38.5991 128.991 36.9647L130.341 35.3303C130.775 34.8211 131.258 34.5666 131.797 34.5666C132.271 34.5666 132.644 34.7855 132.911 35.2234Z" fill="white"/>
<path d="M130.538 44.8211C129.979 43.37 129.702 41.0432 129.702 37.8406C129.702 33.1157 130.367 28.6249 131.697 24.3735C132.02 23.3195 132.549 22.5456 133.289 22.0568C134.025 21.5681 135.063 21.3186 136.393 21.3186C137.113 21.3186 137.617 21.4102 137.904 21.5935C138.191 21.7768 138.338 22.123 138.338 22.6271C138.338 23.2075 138.07 24.5161 137.526 26.5527C137.456 26.8072 137.3 27.3877 137.068 28.2991C136.831 29.2105 136.62 30.2695 136.423 31.4864C136.227 32.7032 136.091 34.0423 136.02 35.4934C137.315 30.407 138.952 26.7716 140.932 24.5873C142.912 22.4082 145.3 21.3135 148.106 21.3135C149.976 21.3135 151.442 21.9041 152.505 23.0853C153.563 24.2666 154.097 25.7838 154.097 27.6372C154.097 29.1646 153.764 30.4528 153.099 31.5067C152.434 32.5607 151.563 33.0902 150.484 33.0902C149.799 33.0902 149.25 32.9273 148.837 32.6014C148.424 32.2756 148.217 31.8224 148.217 31.2369C148.217 30.9823 148.253 30.6921 148.323 30.3662C148.394 30.0404 148.449 29.8011 148.484 29.6585C148.666 29.1137 148.756 28.6046 148.756 28.131C148.756 27.1484 148.288 26.6596 147.356 26.6596C146.635 26.6596 145.935 27.0313 145.25 27.7746C144.565 28.518 144.015 29.521 143.602 30.7736C143.189 32.0261 142.983 33.3804 142.983 34.8366C142.983 36.7968 143.431 38.3701 144.333 39.5514C145.23 40.7326 146.524 41.3232 148.217 41.3232C149.547 41.3232 150.736 40.8803 151.779 39.9892C152.822 39.0982 154.263 37.5453 156.097 35.3254C156.53 34.8162 157.014 34.5617 157.553 34.5617C158.022 34.5617 158.389 34.7806 158.661 35.2185C158.933 35.6563 159.064 36.2521 159.064 37.0158C159.064 38.472 158.722 39.5972 158.042 40.3966C156.424 42.3619 154.802 43.9505 153.185 45.1673C151.568 46.3842 149.734 46.9952 147.683 46.9952C145.99 46.9952 144.454 46.6235 143.068 45.8751C141.683 45.1317 140.559 44.2305 139.698 43.1765C138.836 42.1226 138.277 41.1043 138.025 40.1216C137.955 40.4118 137.683 41.4301 137.214 43.1765C136.816 44.6327 136.358 45.6307 135.839 46.1755C135.315 46.7203 134.519 46.9952 133.435 46.9952C132.055 47.0003 131.098 46.2722 130.538 44.8211Z" fill="white"/>
<path d="M238.505 35.2234C238.777 35.6613 238.908 36.257 238.908 37.0207C238.908 38.4769 238.565 39.6021 237.88 40.4015C236.228 42.3261 234.525 43.9096 232.782 45.1468C231.039 46.3841 229.048 47.0002 226.822 47.0002C225.093 47.0002 223.819 46.3179 222.993 44.9534C222.166 43.5888 221.768 41.71 221.804 39.3119C221.194 41.7864 220.277 43.6856 219.053 45.0094C217.829 46.3383 216.519 47.0002 215.113 47.0002C211.838 47.0002 210.201 45.0348 210.201 41.1092C210.201 40.4168 210.256 39.6938 210.362 38.9301C209.284 41.5471 208.13 43.5481 206.911 44.9279C205.687 46.3077 204.266 47.0002 202.649 47.0002C201.031 47.0002 199.706 46.2466 198.684 44.7395C197.661 43.2324 197.147 41.3485 197.147 39.0981C197.147 36.3741 197.328 33.8742 197.686 31.6033C198.044 29.3325 198.638 26.9242 199.465 24.3784C199.822 23.2889 200.326 22.5048 200.976 22.0363C201.621 21.5628 202.649 21.3286 204.049 21.3286C204.84 21.3286 205.389 21.4559 205.697 21.7105C206.004 21.9651 206.155 22.3469 206.155 22.8561C206.155 23.1463 205.959 24.129 205.561 25.799C205.203 27.1432 204.911 28.36 204.699 29.4547C203.979 33.2734 203.621 35.814 203.621 37.0869C203.621 37.8507 203.712 38.3853 203.893 38.6959C204.074 39.0064 204.362 39.1592 204.755 39.1592C205.944 39.1592 207.102 37.8048 208.236 35.0961C209.369 32.3874 210.599 28.8183 211.934 24.3835C212.256 23.2939 212.634 22.5557 213.067 22.1738C213.501 21.7919 214.292 21.6036 215.44 21.6036C216.378 21.6036 217.022 21.7563 217.385 22.0669C217.743 22.3775 217.924 22.9121 217.924 23.6758C217.924 24.4039 217.672 26.1656 217.169 28.9659C216.448 33.1817 216.09 35.8904 216.09 37.092C216.09 37.8558 216.181 38.3904 216.362 38.7009C216.544 39.0115 216.831 39.1643 217.224 39.1643C217.763 39.1643 218.438 38.6195 219.249 37.5299C220.06 36.4403 220.922 34.7856 221.839 32.5656C222.756 30.3508 223.648 27.6218 224.509 24.3886C224.796 23.299 225.24 22.5149 225.829 22.0465C226.424 21.573 227.31 21.3388 228.499 21.3388C229.326 21.3388 229.9 21.4406 230.227 21.6392C230.55 21.8378 230.711 22.2095 230.711 22.7593C230.711 23.6707 230.263 26.1605 229.361 30.2286C228.353 34.8823 227.849 37.7539 227.849 38.8435C227.849 39.536 227.99 40.0706 228.283 40.4524C228.57 40.8343 228.948 41.0227 229.416 41.0227C230.137 41.0227 230.988 40.5797 231.981 39.6887C232.968 38.7977 234.293 37.3517 235.946 35.3558C236.379 34.8467 236.863 34.5921 237.402 34.5921C237.865 34.5666 238.233 34.7856 238.505 35.2234Z" fill="white"/>
<path d="M263.132 30.6968C263.384 31.1703 263.51 31.7711 263.51 32.4941C263.51 34.2405 262.986 35.274 261.943 35.5999C259.786 36.3636 257.408 36.8015 254.819 36.9084C254.134 39.9634 252.789 42.4073 250.773 44.2402C248.758 46.0783 246.476 46.9948 243.921 46.9948C241.765 46.9948 239.921 46.4703 238.39 45.4113C236.863 44.3574 235.699 42.9572 234.908 41.2108C234.117 39.4644 233.719 37.5754 233.719 35.5388C233.719 32.7792 234.238 30.3149 235.286 28.151C236.329 25.9871 237.77 24.2967 239.604 23.0798C241.438 21.8629 243.468 21.252 245.7 21.252C248.431 21.252 250.637 22.2041 252.31 24.1134C253.983 26.0227 254.96 28.375 255.252 31.1754C256.945 31.0684 258.955 30.7018 261.293 30.0858C261.58 30.0145 261.832 29.9788 262.049 29.9788C262.522 29.989 262.88 30.2232 263.132 30.6968ZM247.352 39.8004C248.199 38.8534 248.763 37.494 249.05 35.7119C247.937 34.9482 247.08 33.9502 246.486 32.713C245.891 31.4758 245.594 30.1672 245.594 28.7874C245.594 28.207 245.65 27.6266 245.755 27.041H245.488C244.047 27.041 242.853 27.7437 241.901 29.1387C240.949 30.5389 240.47 32.5093 240.47 35.0551C240.47 37.0561 240.858 38.5835 241.629 39.6375C242.4 40.6914 243.312 41.221 244.355 41.221C245.508 41.221 246.506 40.7475 247.352 39.8004Z" fill="white"/>
<path d="M259.817 44.8209C259.258 43.3698 258.98 41.043 258.98 37.8404C258.98 33.1155 259.646 28.6247 260.976 24.3733C261.298 23.3193 261.827 22.5454 262.568 22.0566C263.303 21.5678 264.341 21.3184 265.671 21.3184C266.392 21.3184 266.895 21.41 267.183 21.5933C267.47 21.7766 267.616 22.1228 267.616 22.6269C267.616 23.2073 267.349 24.5158 266.805 26.5525C266.447 28.0086 266.16 29.2764 265.943 30.3711C265.727 31.4658 265.545 32.8049 265.404 34.4036C266.593 31.2774 267.923 28.7316 269.394 26.7714C270.87 24.8061 272.316 23.411 273.737 22.5709C275.158 21.7359 276.463 21.3184 277.647 21.3184C279.984 21.3184 281.153 22.4996 281.153 24.8621C281.153 26.2775 280.755 28.8437 279.964 32.5503C279.279 35.7121 278.942 37.8048 278.942 38.8231C278.942 40.2793 279.46 41.0023 280.508 41.0023C281.229 41.0023 282.08 40.5593 283.073 39.6683C284.06 38.7773 285.385 37.3313 287.038 35.3354C287.471 34.8262 287.955 34.5716 288.494 34.5716C288.962 34.5716 289.33 34.7906 289.597 35.2284C289.869 35.6663 290 36.262 290 37.0258C290 38.4819 289.658 39.6072 288.972 40.4065C287.426 42.3311 285.763 43.9146 283.98 45.1519C282.201 46.3891 280.176 47.0052 277.909 47.0052C276.075 47.0052 274.689 46.4706 273.752 45.3963C272.815 44.3219 272.352 42.769 272.352 40.7324C272.352 39.7141 272.604 37.8964 273.107 35.2794C273.576 32.9882 273.808 31.4098 273.808 30.534C273.808 29.9536 273.611 29.6634 273.213 29.6634C272.745 29.6634 272.09 30.2744 271.243 31.4913C270.397 32.7081 269.535 34.3171 268.654 36.318C267.772 38.319 267.062 40.4269 266.523 42.6417C266.125 44.3525 265.666 45.5032 265.147 46.104C264.623 46.7048 263.807 47.0052 262.694 47.0052C261.333 47.0001 260.371 46.272 259.817 44.8209Z" fill="white"/>
<path d="M182.23 19.8214C178.255 19.3326 175.247 22.1126 173.171 23.9048C170.415 26.2876 167.75 32.0513 168.617 36.2009C169.292 39.4442 172.078 42.4278 175.277 43.1661C179.529 44.1488 182.769 42.5246 184.537 41.4146C185.877 40.5745 190.321 37.0002 190.301 33.8689C190.2 18.3652 187.565 20.4782 182.23 19.8214ZM185.434 26.8834C184.26 26.8834 183.308 25.6512 183.308 24.1339C183.308 22.6166 184.26 21.3845 185.434 21.3845C186.608 21.3845 187.56 22.6166 187.56 24.1339C187.56 25.6512 186.608 26.8834 185.434 26.8834Z" fill="white"/>
<path d="M177.191 15.453C177.655 12.2809 175.569 8.30955 171.997 8.16699C167.841 7.99896 166.269 13.3043 167.191 15.7228C168.49 19.124 171.705 22.9019 172.38 22.6931C173.428 22.3673 176.788 18.2126 177.191 15.453Z" fill="white"/>
<path d="M167.302 19.7146C165.291 19.292 162.546 19.8674 162.45 22.8306C162.349 26.0994 165.926 26.4253 167.095 26.2471C168.763 25.9925 170.42 24.6432 171.544 23.3551C171.66 23.2227 171.649 23.0241 171.529 22.8917C170.869 22.1789 168.758 20.0201 167.302 19.7146Z" fill="white"/>
<path d="M173.544 40.9308C170.667 38.9502 169.03 35.8953 168.622 33.1611C168.571 33.3546 168.511 33.543 168.46 33.7365C167.921 35.9157 167.841 40.6304 168.687 41.4349C169.287 42.0051 173.604 43.441 176.249 43.5173C176.894 43.5377 177.443 43.5173 177.962 43.4715C176.587 42.8758 175.368 42.1884 173.544 40.9308Z" fill="white"/>
<path d="M179.075 35.5644C175.307 32.1734 174.607 30.7987 173.932 27.0666C173.644 25.4933 173.937 24.0575 174.113 23.0239C172.994 24.0015 172.037 25.0402 171.251 26.145C171.105 26.9902 169.74 30.8853 173.453 35.6357C177.242 40.4879 181.685 41.659 183.323 42.1427C184.083 41.7302 184.819 41.2567 185.529 40.6916C186.038 40.2893 186.517 39.8718 186.965 39.4492C185.585 39.1692 182.043 38.2374 179.075 35.5644Z" fill="white"/>
<path d="M191.943 28.5431C191.857 26.4352 191.162 24.5361 189.857 22.8558C188.597 21.2316 187.096 20.1726 185.353 19.6838C183.61 19.195 181.826 19.2052 180.007 19.7144C179.095 19.9689 178.219 20.3152 177.372 20.753C177.176 22.1532 176.813 26.6592 179.619 29.9331C182.506 33.3037 187.922 35.992 189.524 36.4503C189.862 35.9462 190.164 35.4319 190.436 34.9075C191.525 32.7742 192.028 30.651 191.943 28.5431ZM186.376 24.6684C185.957 24.9077 185.459 24.6837 185.071 24.3986C184.516 23.9964 184.033 24.2713 185.519 23.1308C185.746 22.9577 186.471 23.0391 186.708 23.4668C186.945 23.8894 186.799 24.4291 186.376 24.6684Z" fill="white"/>
<path d="M192.855 46.8221C192.855 46.8221 190.336 44.4138 191.807 38.9505C192.502 36.3691 195.061 34.3325 195.061 34.3325C195.061 34.3325 192.255 35.0199 190.22 37.7388C187.817 40.9464 187.419 43.4107 187.293 44.1185C187.167 44.8262 186.396 44.3934 187.016 42.6368C187.278 41.8884 187.494 41.3436 187.494 41.3436C187.494 41.3436 185.685 42.311 185.005 43.5482C184.229 44.9586 184.139 45.4321 184.139 45.8852C184.139 46.3384 184.179 45.0808 183.423 44.1999C183.01 43.7162 181.993 43.4769 181.993 43.4769C181.993 43.4769 182.688 44.2203 182.708 44.9026C182.748 46.3435 181.912 46.5268 181.912 46.5268C181.912 46.5268 181.166 46.8017 180.924 45.8394C180.602 44.5512 178.803 44.8262 178.803 44.8262C178.803 44.8262 179.489 45.0858 179.358 46.0532C179.232 47.0206 178.038 46.7457 178.038 46.7457L190.25 46.817H192.855V46.8221Z" fill="white"/>
<path d="M163.256 46.8221C163.256 46.8221 165.775 44.4138 164.303 38.9505C163.608 36.3691 161.049 34.3325 161.049 34.3325C161.049 34.3325 163.855 35.0199 165.89 37.7388C168.294 40.9464 168.692 43.4107 168.818 44.1185C168.944 44.8262 169.714 44.3934 169.095 42.6368C168.833 41.8884 168.616 41.3436 168.616 41.3436C168.616 41.3436 170.425 42.311 171.105 43.5482C171.881 44.9586 171.972 45.4321 171.972 45.8852C171.972 46.3384 171.931 45.0808 172.687 44.1999C173.1 43.7162 174.118 43.4769 174.118 43.4769C174.118 43.4769 173.423 44.2203 173.402 44.9026C173.362 46.3435 174.198 46.5268 174.198 46.5268C174.198 46.5268 174.944 46.8017 175.186 45.8394C175.508 44.5512 177.307 44.8262 177.307 44.8262C177.307 44.8262 176.622 45.0859 176.753 46.0532C176.879 47.0206 178.073 46.7457 178.073 46.7457L165.86 46.817H163.256V46.8221Z" fill="white"/>
</g>
<defs>
<clipPath id="clip0_314_1709">
<rect width="290" height="47" fill="white"/>
</clipPath>
</defs>
</svg>
