<svg width="166" height="183" viewBox="0 0 166 183" fill="none" xmlns="http://www.w3.org/2000/svg">
<path d="M166 107.314C166 148.803 127.256 182.436 85.9611 182.436C44.6665 182.436 0 148.803 0 107.314C0 65.8258 44.6665 27.9407 85.9611 27.9407C127.256 27.9407 166 65.8258 166 107.314Z" fill="#FAFAF9"/>
<g clip-path="url(#clip0_63_186)">
<path d="M81.7671 60.033L153.312 71.5449V97.6482C153.312 120.357 134.902 138.767 112.193 138.767H51.3412C28.632 138.767 10.2227 120.357 10.2227 97.6482V71.5449L81.7671 60.033Z" fill="url(#paint0_linear_63_186)"/>
<path d="M123.881 146.954C119.192 130.791 108.764 124.252 108.764 124.252H54.7692C54.7692 124.252 44.9281 130.427 40.0684 145.6L49.2413 163.535L67.9015 159.617L80.6715 163.535H126.125C126.125 157.148 125.245 151.646 123.881 146.954Z" fill="url(#paint1_linear_63_186)"/>
<path d="M153.312 71.5445C153.312 52.434 145.87 34.468 132.357 20.9549C118.844 7.4418 100.878 0 81.7671 0C62.6567 0 44.6907 7.44213 31.1776 20.9549C17.6645 34.4677 10.2227 52.434 10.2227 71.5445H153.312Z" fill="url(#paint2_linear_63_186)"/>
<path d="M140.973 89.7259C149.172 89.7259 155.819 83.0789 155.819 74.8794C155.819 66.68 149.172 60.033 140.973 60.033C132.773 60.033 126.126 66.68 126.126 74.8794C126.126 83.0789 132.773 89.7259 140.973 89.7259Z" fill="url(#paint3_linear_63_186)"/>
<path d="M22.5608 89.7259C30.7603 89.7259 37.4073 83.0789 37.4073 74.8794C37.4073 66.68 30.7603 60.033 22.5608 60.033C14.3613 60.033 7.71436 66.68 7.71436 74.8794C7.71436 83.0789 14.3613 89.7259 22.5608 89.7259Z" fill="url(#paint4_linear_63_186)"/>
<path d="M25.5392 52.9539C27.4742 47.0973 32.9289 43.1281 39.0969 43.1281H57.159C61.8579 43.1281 66.2707 40.8712 69.0208 37.0614L75.4228 28.1934C78.5459 23.8672 84.9879 23.8672 88.1111 28.1934L94.513 37.0614C97.2635 40.8712 101.676 43.1281 106.375 43.1281H124.439C130.537 43.1281 136.003 46.9907 137.935 52.7754C139.878 58.5916 140.942 64.8105 140.971 71.273C141.118 103.919 114.506 130.7 81.8596 130.749C49.1198 130.8 22.562 104.273 22.562 71.5447C22.562 65.0509 23.6074 58.8004 25.5392 52.9539Z" fill="url(#paint5_linear_63_186)"/>
<path d="M122.023 28.9218C119.743 26.8424 117.145 24.8185 114.302 22.9062C112.809 21.9022 112.412 19.8782 113.416 18.3852C114.42 16.8922 116.445 16.4958 117.937 17.4998C121.046 19.5902 123.898 21.8136 126.414 24.1083C127.743 25.3208 127.837 27.3813 126.625 28.7104C125.411 30.0415 123.35 30.1327 122.023 28.9218Z" fill="#918CA1"/>
<path d="M103.45 17.1647C101.626 16.4363 99.7495 15.7958 97.8708 15.2613C96.14 14.7687 95.1367 12.9666 95.6292 11.2361C96.1221 9.50562 97.9236 8.50259 99.6541 8.99482C101.747 9.59065 103.837 10.3037 105.866 11.1143C107.537 11.7818 108.35 13.6774 107.683 15.3482C107.017 17.0145 105.124 17.8335 103.45 17.1647Z" fill="#918CA1"/>
<path d="M121.912 92.5275C125.68 92.5275 128.735 90.0726 128.735 87.0445C128.735 84.0163 125.68 81.5615 121.912 81.5615C118.144 81.5615 115.089 84.0163 115.089 87.0445C115.089 90.0726 118.144 92.5275 121.912 92.5275Z" fill="#FB99AC"/>
<path d="M41.6217 92.5275C45.3898 92.5275 48.4445 90.0726 48.4445 87.0445C48.4445 84.0163 45.3898 81.5615 41.6217 81.5615C37.8535 81.5615 34.7988 84.0163 34.7988 87.0445C34.7988 90.0726 37.8535 92.5275 41.6217 92.5275Z" fill="#FB99AC"/>
<path d="M110.215 87.0445C117.687 87.0445 123.744 80.9873 123.744 73.5154C123.744 66.0435 117.687 59.9863 110.215 59.9863C102.743 59.9863 96.6855 66.0435 96.6855 73.5154C96.6855 80.9873 102.743 87.0445 110.215 87.0445Z" fill="white"/>
<path d="M53.3186 87.0445C60.7905 87.0445 66.8477 80.9873 66.8477 73.5154C66.8477 66.0435 60.7905 59.9863 53.3186 59.9863C45.8467 59.9863 39.7896 66.0435 39.7896 73.5154C39.7896 80.9873 45.8467 87.0445 53.3186 87.0445Z" fill="white"/>
<path d="M110.214 81.5789C114.668 81.5789 118.278 77.9688 118.278 73.5155C118.278 69.0622 114.668 65.4521 110.214 65.4521C105.761 65.4521 102.151 69.0622 102.151 73.5155C102.151 77.9688 105.761 81.5789 110.214 81.5789Z" fill="#383842"/>
<path d="M53.3182 81.5789C57.7715 81.5789 61.3816 77.9688 61.3816 73.5155C61.3816 69.0622 57.7715 65.4521 53.3182 65.4521C48.865 65.4521 45.2549 69.0622 45.2549 73.5155C45.2549 77.9688 48.865 81.5789 53.3182 81.5789Z" fill="#383842"/>
<path d="M81.7663 86.8153C79.5273 86.8153 77.2886 85.9683 75.4624 84.2753C74.8027 83.6635 74.7636 82.6331 75.3754 81.9734C75.9869 81.3141 77.0176 81.2753 77.6773 81.8861C80.085 84.1189 83.4479 84.1189 85.8556 81.8861C86.5153 81.2753 87.5457 81.3137 88.1575 81.9734C88.7689 82.6331 88.7302 83.6635 88.0705 84.2753C86.2439 85.9686 84.0053 86.8153 81.7663 86.8153Z" fill="#383842"/>
<path d="M106.749 148.238C108.098 148.238 109.192 149.332 109.192 150.681V163.535H104.306V150.681C104.306 149.332 105.4 148.238 106.749 148.238Z" fill="#D1CFD6"/>
<path d="M45.6006 143.893V127.424C45.6006 122.161 49.8678 117.894 55.1315 117.894H80.6719C85.9357 117.894 90.2029 122.161 90.2029 127.424V154.004C90.2029 159.267 85.9357 163.535 80.6719 163.535H49.2417L45.6006 143.893Z" fill="url(#paint6_linear_63_186)"/>
<path d="M68.9703 123.089L78.827 117.894H80.6718C83.0056 117.894 85.142 118.734 86.7988 120.126C85.7218 127.067 79.7062 132.397 72.4687 132.397H70.6434C67.9901 132.397 65.8394 130.246 65.8394 127.593C65.839 125.584 67.088 123.788 68.9703 123.089Z" fill="#D86743"/>
<path d="M45.6003 143.893H49.2411C54.6648 143.893 59.0616 148.29 59.0616 153.714C59.0616 159.138 54.6651 163.535 49.2411 163.535H45.6003C40.1767 163.535 35.7798 159.138 35.7798 153.714C35.7798 148.291 40.1767 143.893 45.6003 143.893Z" fill="url(#paint7_linear_63_186)"/>
<path d="M63.3349 111.536H72.469C75.9805 111.536 78.8273 114.382 78.8273 117.894C78.8273 121.405 75.9808 124.252 72.469 124.252H63.3349C59.8234 124.252 56.9766 121.406 56.9766 117.894C56.9766 114.382 59.8231 111.536 63.3349 111.536Z" fill="url(#paint8_linear_63_186)"/>
</g>
<defs>
<linearGradient id="paint0_linear_63_186" x1="81.7671" y1="138.766" x2="81.7671" y2="60.033" gradientUnits="userSpaceOnUse">
<stop stop-color="#4F4C5F"/>
<stop offset="0.9783" stop-color="#6A647F"/>
</linearGradient>
<linearGradient id="paint1_linear_63_186" x1="40.068" y1="143.893" x2="126.125" y2="143.893" gradientUnits="userSpaceOnUse">
<stop stop-color="#CED5D5"/>
<stop offset="1" stop-color="#EDEDED"/>
</linearGradient>
<linearGradient id="paint2_linear_63_186" x1="81.7671" y1="71.5445" x2="81.7671" y2="0" gradientUnits="userSpaceOnUse">
<stop stop-color="#4F4C5F"/>
<stop offset="0.9783" stop-color="#6A647F"/>
</linearGradient>
<linearGradient id="paint3_linear_63_186" x1="140.973" y1="89.7256" x2="140.973" y2="60.033" gradientUnits="userSpaceOnUse">
<stop stop-color="#FDDACC"/>
<stop offset="0.9788" stop-color="#FDC8BB"/>
</linearGradient>
<linearGradient id="paint4_linear_63_186" x1="22.5608" y1="89.7256" x2="22.5608" y2="60.033" gradientUnits="userSpaceOnUse">
<stop stop-color="#FDDACC"/>
<stop offset="0.9788" stop-color="#FDC8BB"/>
</linearGradient>
<linearGradient id="paint5_linear_63_186" x1="81.7668" y1="130.749" x2="81.7668" y2="24.9491" gradientUnits="userSpaceOnUse">
<stop offset="0.0212" stop-color="#FDC8BB"/>
<stop offset="1" stop-color="#FDDACC"/>
</linearGradient>
<linearGradient id="paint6_linear_63_186" x1="67.9016" y1="163.535" x2="67.9016" y2="117.894" gradientUnits="userSpaceOnUse">
<stop stop-color="#D66743"/>
<stop offset="0.9788" stop-color="#E79580"/>
</linearGradient>
<linearGradient id="paint7_linear_63_186" x1="47.4207" y1="163.535" x2="47.4207" y2="143.893" gradientUnits="userSpaceOnUse">
<stop offset="0.0212" stop-color="#FDC8BB"/>
<stop offset="1" stop-color="#FDDACC"/>
</linearGradient>
<linearGradient id="paint8_linear_63_186" x1="67.9018" y1="124.252" x2="67.9018" y2="111.536" gradientUnits="userSpaceOnUse">
<stop stop-color="#8D889D"/>
<stop offset="0.9777" stop-color="#C1BFC5"/>
</linearGradient>
<clipPath id="clip0_63_186">
<rect width="163.535" height="163.535" fill="white"/>
</clipPath>
</defs>
</svg>
