<svg width="166" height="185" viewBox="0 0 166 185" fill="none" xmlns="http://www.w3.org/2000/svg">
<path d="M166 109.78C166 151.268 127.256 184.901 85.9611 184.901C44.6665 184.901 0 151.268 0 109.78C0 68.2912 44.6665 30.406 85.9611 30.406C127.256 30.406 166 68.2912 166 109.78Z" fill="#FAFAF9"/>
<g clip-path="url(#clip0_63_185)">
<path d="M110.453 126.055H55.5474C55.5474 126.055 44.9439 132.705 40.1765 149.141C38.7897 153.912 37.8945 159.507 37.8945 166H57.8026H84.114L92.3449 162.251L116.074 166L125.402 147.763C120.46 132.334 110.453 126.055 110.453 126.055Z" fill="url(#paint0_linear_63_185)"/>
<path d="M10.542 72.791V72.128C10.7249 32.4166 43.1775 0.0608446 82.8876 0H83.0007C102.356 0 120.552 7.53713 134.237 21.2229C147.923 34.9086 155.46 53.1048 155.46 72.4593L10.542 72.791Z" fill="url(#paint1_linear_63_185)"/>
<path d="M22.7964 90.9469C31.1341 90.9469 37.8932 84.1879 37.8932 75.8502C37.8932 67.5125 31.1341 60.7534 22.7964 60.7534C14.4587 60.7534 7.69971 67.5125 7.69971 75.8502C7.69971 84.1879 14.4587 90.9469 22.7964 90.9469Z" fill="url(#paint2_radial_63_185)"/>
<path d="M143.205 90.9469C151.542 90.9469 158.301 84.1879 158.301 75.8502C158.301 67.5125 151.542 60.7534 143.205 60.7534C134.867 60.7534 128.108 67.5125 128.108 75.8502C128.108 84.1879 134.867 90.9469 143.205 90.9469Z" fill="url(#paint3_radial_63_185)"/>
<path d="M22.7984 72.7358C22.798 72.6435 22.8007 72.5516 22.8007 72.4593C22.8007 72.367 22.798 72.2751 22.7984 72.1829V72.7358Z" fill="url(#paint4_linear_63_185)"/>
<path d="M136.832 45.4787C133.974 39.7897 127.306 37.1222 121.279 39.1707C110.399 42.868 97.1717 45.0363 82.906 45.0363C68.719 45.0363 55.5593 42.8915 44.7141 39.2312C38.6935 37.1992 32.0459 39.8664 29.1881 45.5419C25.1033 53.6544 22.8011 62.8016 22.8008 72.4597C22.8028 105.53 49.8019 132.612 82.9063 132.662C116.198 132.713 143.203 105.739 143.203 72.4597C143.203 62.7586 140.908 53.5942 136.832 45.4787Z" fill="url(#paint5_linear_63_185)"/>
<path d="M42.1793 93.7959C46.0108 93.7959 49.1169 91.2996 49.1169 88.2203C49.1169 85.141 46.0108 82.6448 42.1793 82.6448C38.3478 82.6448 35.2417 85.141 35.2417 88.2203C35.2417 91.2996 38.3478 93.7959 42.1793 93.7959Z" fill="#FB99AC"/>
<path d="M123.822 93.7959C127.653 93.7959 130.76 91.2996 130.76 88.2203C130.76 85.141 127.653 82.6448 123.822 82.6448C119.99 82.6448 116.884 85.141 116.884 88.2203C116.884 91.2996 119.99 93.7959 123.822 93.7959Z" fill="#FB99AC"/>
<path d="M54.0731 88.2204C61.671 88.2204 67.8303 82.0611 67.8303 74.4632C67.8303 66.8653 61.671 60.7061 54.0731 60.7061C46.4752 60.7061 40.3159 66.8653 40.3159 74.4632C40.3159 82.0611 46.4752 88.2204 54.0731 88.2204Z" fill="white"/>
<path d="M111.928 88.2204C119.526 88.2204 125.685 82.0611 125.685 74.4632C125.685 66.8653 119.526 60.7061 111.928 60.7061C104.33 60.7061 98.1709 66.8653 98.1709 74.4632C98.1709 82.0611 104.33 88.2204 111.928 88.2204Z" fill="white"/>
<path d="M54.0732 82.6624C58.6014 82.6624 62.2723 78.9916 62.2723 74.4633C62.2723 69.935 58.6014 66.2642 54.0732 66.2642C49.5449 66.2642 45.874 69.935 45.874 74.4633C45.874 78.9916 49.5449 82.6624 54.0732 82.6624Z" fill="#383842"/>
<path d="M111.928 82.6624C116.456 82.6624 120.127 78.9916 120.127 74.4633C120.127 69.935 116.456 66.2642 111.928 66.2642C107.4 66.2642 103.729 69.935 103.729 74.4633C103.729 78.9916 107.4 82.6624 111.928 82.6624Z" fill="#383842"/>
<path d="M83.0015 87.9839C80.7258 87.9839 78.4497 87.1232 76.5933 85.4016C75.9237 84.781 75.884 83.7347 76.505 83.0651C77.1257 82.3955 78.1723 82.3561 78.8412 82.9768C81.2902 85.2479 84.7121 85.2479 87.1611 82.9768C87.83 82.3564 88.8766 82.3951 89.4973 83.0651C90.1183 83.7347 90.079 84.7806 89.409 85.4016C87.5533 87.1235 85.2772 87.9839 83.0015 87.9839Z" fill="#383842"/>
<path d="M57.3805 15.348C56.7334 13.6404 57.5928 11.731 59.3008 11.0839C62.1866 9.99 65.2031 9.08263 68.2668 8.38688C70.0481 7.98379 71.8193 9.09784 72.2237 10.8792C72.6281 12.6602 71.5124 14.4317 69.7314 14.8364C66.9659 15.4644 64.2451 16.2825 61.6446 17.2682C59.9307 17.9183 58.0254 17.0496 57.3805 15.348Z" fill="#F3CAC0"/>
<path d="M43.0186 24.5137C41.9472 23.0346 42.2779 20.9672 43.757 19.8961C45.0622 18.951 46.4229 18.045 47.8022 17.2041C49.3617 16.2534 51.3963 16.7468 52.347 18.3059C53.2977 19.865 52.8047 21.9 51.2452 22.8507C50.0148 23.601 48.8005 24.4089 47.6362 25.2521C46.1574 26.3238 44.0897 25.9932 43.0186 24.5137Z" fill="#F3CAC0"/>
<path d="M57.5962 150.446C56.2242 150.446 55.1118 151.558 55.1118 152.93V166H60.0806V152.93C60.0809 151.558 58.9685 150.446 57.5962 150.446Z" fill="#59C2E7"/>
<path d="M119.776 146.027V129.281C119.776 123.929 115.437 119.589 110.085 119.589H84.1139C78.7615 119.589 74.4224 123.929 74.4224 129.281V156.308C74.4224 161.66 78.7615 166 84.1139 166H116.074L119.776 146.027Z" fill="url(#paint6_linear_63_185)"/>
<path d="M116.074 156.138L108.021 151.79C107.501 151.509 107.023 151.153 106.605 150.735C102.928 147.058 96.5819 149.365 96.2036 154.551C96.1683 155.034 96.1504 155.522 96.1504 156.014C96.1504 159.652 97.1352 163.062 98.8448 166H116.074V156.138Z" fill="#4F4C5F"/>
<path d="M119.776 146.027H116.074C110.559 146.027 106.088 150.498 106.088 156.013C106.088 161.529 110.559 166 116.074 166H119.776C125.292 166 129.762 161.528 129.762 156.013C129.762 150.498 125.291 146.027 119.776 146.027Z" fill="url(#paint7_linear_63_185)"/>
<path d="M101.744 113.124H92.4556C88.885 113.124 85.9902 116.019 85.9902 119.59C85.9902 123.16 88.885 126.055 92.4556 126.055H101.744C105.314 126.055 108.209 123.16 108.209 119.59C108.209 116.019 105.314 113.124 101.744 113.124Z" fill="url(#paint8_linear_63_185)"/>
</g>
<defs>
<linearGradient id="paint0_linear_63_185" x1="81.6481" y1="166" x2="81.6481" y2="126.055" gradientUnits="userSpaceOnUse">
<stop offset="0.0212" stop-color="#BBE3F4"/>
<stop offset="1" stop-color="#78C5E6"/>
</linearGradient>
<linearGradient id="paint1_linear_63_185" x1="83.001" y1="72.791" x2="83.001" y2="0" gradientUnits="userSpaceOnUse">
<stop stop-color="#D66743"/>
<stop offset="0.9788" stop-color="#E79580"/>
</linearGradient>
<radialGradient id="paint2_radial_63_185" cx="0" cy="0" r="1" gradientUnits="userSpaceOnUse" gradientTransform="translate(22.7964 75.8502) scale(15.0967 15.0967)">
<stop stop-color="#FED2A4"/>
<stop offset="0.9788" stop-color="#FFBD86"/>
</radialGradient>
<radialGradient id="paint3_radial_63_185" cx="0" cy="0" r="1" gradientUnits="userSpaceOnUse" gradientTransform="translate(143.205 75.8502) scale(15.0967 15.0967)">
<stop stop-color="#FED2A4"/>
<stop offset="0.9788" stop-color="#FFBD86"/>
</radialGradient>
<linearGradient id="paint4_linear_63_185" x1="22.7994" y1="72.1829" x2="22.7994" y2="72.7358" gradientUnits="userSpaceOnUse">
<stop stop-color="#FED2A4"/>
<stop offset="0.9788" stop-color="#FFBD86"/>
</linearGradient>
<linearGradient id="paint5_linear_63_185" x1="83.0019" y1="38.4849" x2="83.0019" y2="132.662" gradientUnits="userSpaceOnUse">
<stop stop-color="#FED2A4"/>
<stop offset="0.9788" stop-color="#FFBD86"/>
</linearGradient>
<linearGradient id="paint6_linear_63_185" x1="97.0996" y1="166" x2="97.0996" y2="119.59" gradientUnits="userSpaceOnUse">
<stop offset="0.0217" stop-color="#6A647F"/>
<stop offset="1" stop-color="#4F4C5F"/>
</linearGradient>
<linearGradient id="paint7_linear_63_185" x1="117.925" y1="166" x2="117.925" y2="146.027" gradientUnits="userSpaceOnUse">
<stop stop-color="#FED2A4"/>
<stop offset="0.9788" stop-color="#FFBD86"/>
</linearGradient>
<linearGradient id="paint8_linear_63_185" x1="85.9899" y1="119.59" x2="108.209" y2="119.59" gradientUnits="userSpaceOnUse">
<stop stop-color="#8D889D"/>
<stop offset="0.9777" stop-color="#C1BFC5"/>
</linearGradient>
<clipPath id="clip0_63_185">
<rect width="166" height="166" fill="white"/>
</clipPath>
</defs>
</svg>
