<svg width="113" height="113" viewBox="0 0 113 113" fill="none" xmlns="http://www.w3.org/2000/svg">
<path d="M88.8945 49.9506C102.208 49.9506 113 39.1582 113 25.8451C113 12.532 102.208 1.73962 88.8945 1.73962C75.5814 1.73962 64.7891 12.532 64.7891 25.8451C64.7891 39.1582 75.5814 49.9506 88.8945 49.9506Z" fill="url(#paint0_linear_15_182)"/>
<path d="M24.1055 49.9506C37.4185 49.9506 48.2109 39.1582 48.2109 25.8451C48.2109 12.532 37.4185 1.73962 24.1055 1.73962C10.7924 1.73962 0 12.532 0 25.8451C0 39.1582 10.7924 49.9506 24.1055 49.9506Z" fill="url(#paint1_linear_15_182)"/>
<path d="M7.96944 28.7635C9.48402 28.7635 10.7118 27.7769 10.7118 26.5598C10.7118 25.3427 9.48402 24.3561 7.96944 24.3561C6.45486 24.3561 5.22705 25.3427 5.22705 26.5598C5.22705 27.7769 6.45486 28.7635 7.96944 28.7635Z" fill="#FD75BE"/>
<path d="M40.2414 28.7635C41.756 28.7635 42.9838 27.7769 42.9838 26.5598C42.9838 25.3427 41.756 24.3561 40.2414 24.3561C38.7268 24.3561 37.499 25.3427 37.499 26.5598C37.499 27.7769 38.7268 28.7635 40.2414 28.7635Z" fill="#FD75BE"/>
<path d="M12.6709 26.5599C15.6742 26.5599 18.1088 24.1252 18.1088 21.1219C18.1088 18.1186 15.6742 15.684 12.6709 15.684C9.66757 15.684 7.23291 18.1186 7.23291 21.1219C7.23291 24.1252 9.66757 26.5599 12.6709 26.5599Z" fill="white"/>
<path d="M35.5395 26.5599C38.5428 26.5599 40.9775 24.1252 40.9775 21.1219C40.9775 18.1186 38.5428 15.684 35.5395 15.684C32.5362 15.684 30.1016 18.1186 30.1016 21.1219C30.1016 24.1252 32.5362 26.5599 35.5395 26.5599Z" fill="white"/>
<path d="M14.4672 23.3483C13.8713 23.3483 13.2935 23.032 12.9862 22.4729C12.918 22.3491 12.8122 22.2863 12.6709 22.2863C12.5295 22.2863 12.4235 22.3491 12.3555 22.4729C11.9064 23.29 10.8795 23.5883 10.0629 23.1392C9.24574 22.6899 8.94748 21.6634 9.39656 20.8463C10.0529 19.6517 11.3077 18.9098 12.6709 18.9098C14.0341 18.9098 15.2888 19.6517 15.9452 20.8463C16.3942 21.6634 16.096 22.6899 15.2789 23.1392C15.0209 23.281 14.7422 23.3483 14.4672 23.3483Z" fill="#383842"/>
<path d="M37.3366 23.3483C36.7407 23.3483 36.1629 23.0323 35.8556 22.4731C35.7874 22.3493 35.6814 22.2865 35.54 22.2865C35.3989 22.2865 35.2927 22.3493 35.2247 22.4731C34.7756 23.29 33.7489 23.5883 32.9318 23.1392C32.1147 22.6899 31.8167 21.6634 32.2657 20.8463C32.9226 19.6519 34.1771 18.9098 35.54 18.9098C36.9033 18.9098 38.1577 19.6517 38.8146 20.8463C39.2637 21.6632 38.9656 22.6899 38.1485 23.1392C37.8905 23.2808 37.6116 23.3483 37.3366 23.3483Z" fill="#383842"/>
<path d="M26.2484 28.43H21.963C20.7681 28.43 19.7993 27.4614 19.7993 26.2663C19.7993 25.0715 20.7679 24.1027 21.963 24.1027H26.2484C27.4432 24.1027 28.4121 25.0713 28.4121 26.2663C28.4121 27.4614 27.4435 28.43 26.2484 28.43Z" fill="#383842"/>
<path d="M80.0571 43.2906C81.434 41.9141 81.5997 39.7227 80.4136 38.1786C76.541 33.1365 71.11 29.3508 64.8491 27.5426C65.1933 32.4892 67.0297 37.0242 69.9112 40.701L75.3129 43.8911C76.8462 44.7965 78.7979 44.5493 80.0571 43.2906Z" fill="#8959C3"/>
<path d="M56.5 80.6056C69.8131 80.6056 80.6055 69.8132 80.6055 56.5001C80.6055 43.187 69.8131 32.3947 56.5 32.3947C43.1869 32.3947 32.3945 43.187 32.3945 56.5001C32.3945 69.8132 43.1869 80.6056 56.5 80.6056Z" fill="url(#paint2_linear_15_182)"/>
<path d="M59.0031 41.3526C58.278 41.2214 57.5359 41.1419 56.7971 41.1163C55.564 41.0735 54.599 40.0389 54.642 38.8058C54.6848 37.5727 55.7103 36.6131 56.9524 36.6507C57.9053 36.6838 58.8631 36.7865 59.7986 36.9557C61.0128 37.1754 61.8189 38.3378 61.5992 39.552C61.379 40.7696 60.2139 41.5719 59.0031 41.3526Z" fill="#ADEDE3"/>
<path d="M68.145 46.7198C67.2851 45.6762 66.2907 44.7852 65.1893 44.0717C64.1536 43.4009 63.858 42.0176 64.5286 40.982C65.1994 39.9465 66.5826 39.6505 67.6183 40.3215C69.1044 41.284 70.4419 42.4807 71.5933 43.8781C72.3778 44.8303 72.2421 46.2385 71.2899 47.023C70.342 47.8043 68.9331 47.6762 68.145 46.7198Z" fill="#ADEDE3"/>
<path d="M47.3045 67.9392C46.0023 66.3698 43.6201 66.2854 42.1781 67.7274C41.1451 68.7604 40.8656 70.328 41.4778 71.6545L43.9976 77.1131C46.8287 78.834 50.0424 79.9881 53.4815 80.4178C52.4129 75.756 50.261 71.5025 47.3045 67.9392Z" fill="#01AB8B"/>
<path d="M24.1055 111.261C37.4185 111.261 48.2109 100.468 48.2109 87.155C48.2109 73.8419 37.4185 63.0496 24.1055 63.0496C10.7924 63.0496 0 73.8419 0 87.155C0 100.468 10.7924 111.261 24.1055 111.261Z" fill="url(#paint3_linear_15_182)"/>
<path d="M40.3402 63.0496C41.857 63.0496 43.0866 62.0614 43.0866 60.8425C43.0866 59.6235 41.857 58.6354 40.3402 58.6354C38.8234 58.6354 37.5938 59.6235 37.5938 60.8425C37.5938 62.0614 38.8234 63.0496 40.3402 63.0496Z" fill="#FB99AC"/>
<path d="M72.66 63.0496C74.1768 63.0496 75.4065 62.0614 75.4065 60.8425C75.4065 59.6235 74.1768 58.6354 72.66 58.6354C71.1432 58.6354 69.9136 59.6235 69.9136 60.8425C69.9136 62.0614 71.1432 63.0496 72.66 63.0496Z" fill="#FB99AC"/>
<path d="M45.0486 60.8424C48.0564 60.8424 50.4947 58.4041 50.4947 55.3964C50.4947 52.3886 48.0564 49.9503 45.0486 49.9503C42.0408 49.9503 39.6025 52.3886 39.6025 55.3964C39.6025 58.4041 42.0408 60.8424 45.0486 60.8424Z" fill="white"/>
<path d="M67.9514 60.8424C70.9592 60.8424 73.3975 58.4041 73.3975 55.3964C73.3975 52.3886 70.9592 49.9503 67.9514 49.9503C64.9437 49.9503 62.5054 52.3886 62.5054 55.3964C62.5054 58.4041 64.9437 60.8424 67.9514 60.8424Z" fill="white"/>
<path d="M45.0487 58.6423C46.8413 58.6423 48.2946 57.189 48.2946 55.3963C48.2946 53.6036 46.8413 52.1504 45.0487 52.1504C43.256 52.1504 41.8027 53.6036 41.8027 55.3963C41.8027 57.189 43.256 58.6423 45.0487 58.6423Z" fill="#383842"/>
<path d="M67.9515 58.6423C69.7442 58.6423 71.1974 57.189 71.1974 55.3963C71.1974 53.6036 69.7442 52.1504 67.9515 52.1504C66.1588 52.1504 64.7056 53.6036 64.7056 55.3963C64.7056 57.189 66.1588 58.6423 67.9515 58.6423Z" fill="#383842"/>
<path d="M56.5 61.223C55.4853 61.223 54.4708 60.8392 53.6431 60.0718C53.1872 59.6493 53.1602 58.9371 53.5827 58.4813C54.0057 58.0255 54.7175 57.9985 55.1733 58.4212C55.9668 59.1568 57.0331 59.1568 57.8265 58.4212C58.2826 57.9987 58.9944 58.0255 59.4171 58.4813C59.8396 58.9371 59.8128 59.6491 59.3568 60.0718C58.5293 60.8394 57.5148 61.223 56.5 61.223Z" fill="#383842"/>
<path d="M7.96944 92.4449C9.48402 92.4449 10.7118 91.4583 10.7118 90.2412C10.7118 89.0241 9.48402 88.0375 7.96944 88.0375C6.45486 88.0375 5.22705 89.0241 5.22705 90.2412C5.22705 91.4583 6.45486 92.4449 7.96944 92.4449Z" fill="#FB99AC"/>
<path d="M40.2414 92.4449C41.756 92.4449 42.9838 91.4583 42.9838 90.2412C42.9838 89.0241 41.756 88.0375 40.2414 88.0375C38.7268 88.0375 37.499 89.0241 37.499 90.2412C37.499 91.4583 38.7268 92.4449 40.2414 92.4449Z" fill="#FB99AC"/>
<path d="M24.1053 92.1114C22.9215 92.1114 21.7379 91.7157 20.7502 90.9244C19.8342 90.1906 19.6863 88.8531 20.4204 87.9371C21.1542 87.021 22.4918 86.8736 23.4077 87.6074C23.8183 87.9365 24.392 87.9365 24.8026 87.6074C25.7183 86.8736 27.0559 87.0212 27.7899 87.9371C28.5237 88.8531 28.3761 90.1906 27.4602 90.9244C26.4726 91.7157 25.2891 92.1114 24.1053 92.1114Z" fill="#383842"/>
<path d="M18.0972 84.44C17.9153 81.6591 15.5999 79.4388 12.8141 79.3672C9.74574 79.2886 7.2334 81.7526 7.2334 84.8031C7.2334 84.958 7.23993 85.1113 7.25253 85.2628C7.32997 86.1825 8.32783 86.7306 9.1526 86.3162C9.32547 86.2296 9.50781 86.1515 9.69441 86.0776L9.68991 86.076L12.6711 84.3779L15.6523 86.076L15.6478 86.0776C15.8342 86.1512 16.0163 86.2291 16.1888 86.3158C17.023 86.7347 18.0177 86.1686 18.092 85.238C18.1125 84.9771 18.1147 84.7106 18.0972 84.44Z" fill="white"/>
<path d="M12.6712 85.5315C13.7591 85.5315 14.7776 85.7303 15.6524 86.0763C15.8196 85.6853 15.9121 85.2556 15.9121 84.8034C15.9121 83.0134 14.4612 81.5624 12.6712 81.5624C10.8812 81.5624 9.43018 83.0134 9.43018 84.8034C9.43018 85.2556 9.52269 85.6853 9.68994 86.0763C10.5647 85.7301 11.5833 85.5315 12.6712 85.5315Z" fill="#383842"/>
<path d="M40.9658 84.44C40.7839 81.6591 38.4686 79.4388 35.6827 79.3672C32.6142 79.2886 30.1021 81.7526 30.1021 84.8031C30.1021 84.958 30.1086 85.1113 30.1214 85.2628C30.1988 86.1825 31.1965 86.7306 32.0215 86.3162C32.1944 86.2296 32.3767 86.1515 32.5635 86.0776L32.5588 86.076L35.54 84.5049L38.5212 86.076L38.5165 86.0776C38.7029 86.1512 38.885 86.2291 39.0574 86.3158C39.8916 86.7347 40.8863 86.1686 40.9604 85.238C40.9813 84.9771 40.9834 84.7106 40.9658 84.44Z" fill="white"/>
<path d="M35.5398 85.5315C36.6277 85.5315 37.6463 85.7303 38.521 86.0763C38.6883 85.6853 38.7808 85.2556 38.7808 84.8034C38.7808 83.0134 37.3298 81.5624 35.5398 81.5624C33.7498 81.5624 32.2988 83.0134 32.2988 84.8034C32.2988 85.2556 32.3913 85.6853 32.5586 86.0763C33.4333 85.7301 34.4519 85.5315 35.5398 85.5315Z" fill="#383842"/>
<path d="M88.8945 111.261C102.208 111.261 113 100.468 113 87.155C113 73.8419 102.208 63.0496 88.8945 63.0496C75.5814 63.0496 64.7891 73.8419 64.7891 87.155C64.7891 100.468 75.5814 111.261 88.8945 111.261Z" fill="url(#paint4_linear_15_182)"/>
<path d="M89.4182 106.803C89.3912 106.803 89.3644 106.803 89.3374 106.803C88.1034 106.796 87.1082 105.791 87.1143 104.557C87.1204 103.327 88.1196 102.334 89.3482 102.334C89.372 102.334 89.3948 102.335 89.418 102.335C90.197 102.335 90.9907 102.257 91.7781 102.103C92.9874 101.867 94.1624 102.657 94.3985 103.868C94.6346 105.079 93.8443 106.253 92.6333 106.489C91.565 106.697 90.4838 106.803 89.4182 106.803Z" fill="#BDE5F6"/>
<path d="M97.0103 102.463C96.3213 101.439 96.5928 100.051 97.6165 99.3624C98.7886 98.5734 99.8765 97.6312 100.851 96.5615C101.682 95.6494 103.095 95.5832 104.007 96.4136C104.919 97.2445 104.985 98.6574 104.155 99.5697C102.94 100.904 101.58 102.081 100.111 103.069C99.0965 103.753 97.705 103.495 97.0103 102.463Z" fill="#BDE5F6"/>
<path d="M73.1208 91.8737C74.6354 91.8737 75.8632 90.8871 75.8632 89.67C75.8632 88.4529 74.6354 87.4663 73.1208 87.4663C71.6062 87.4663 70.3784 88.4529 70.3784 89.67C70.3784 90.8871 71.6062 91.8737 73.1208 91.8737Z" fill="#FB99AC"/>
<path d="M105.392 91.8737C106.907 91.8737 108.135 90.8871 108.135 89.67C108.135 88.4529 106.907 87.4663 105.392 87.4663C103.878 87.4663 102.65 88.4529 102.65 89.67C102.65 90.8871 103.878 91.8737 105.392 91.8737Z" fill="#FB99AC"/>
<path d="M77.8221 89.6701C80.8215 89.6701 83.2531 87.2385 83.2531 84.2391C83.2531 81.2396 80.8215 78.8081 77.8221 78.8081C74.8226 78.8081 72.3911 81.2396 72.3911 84.2391C72.3911 87.2385 74.8226 89.6701 77.8221 89.6701Z" fill="#CBCBCB"/>
<path d="M72.3911 84.505C72.5334 87.3816 74.9104 89.6699 77.8221 89.6699C80.7337 89.6699 83.1108 87.3813 83.2531 84.505H72.3911Z" fill="white"/>
<path d="M74.5933 84.505C74.7319 86.1671 76.1239 87.4732 77.8219 87.4732C79.5198 87.4732 80.9118 86.1671 81.0505 84.505H74.5933Z" fill="#383842"/>
<path d="M100.691 89.6701C103.69 89.6701 106.122 87.2385 106.122 84.2391C106.122 81.2396 103.69 78.8081 100.691 78.8081C97.6913 78.8081 95.2598 81.2396 95.2598 84.2391C95.2598 87.2385 97.6913 89.6701 100.691 89.6701Z" fill="#CBCBCB"/>
<path d="M95.2598 84.505C95.402 87.3816 97.7791 89.6699 100.691 89.6699C103.602 89.6699 105.979 87.3813 106.122 84.505H95.2598Z" fill="white"/>
<path d="M97.4619 84.505C97.6006 86.1671 98.9926 87.4732 100.691 87.4732C102.388 87.4732 103.78 86.1671 103.919 84.505H97.4619Z" fill="#383842"/>
<path d="M87.1682 90.6136C86.7144 90.6136 86.2624 90.432 85.9297 90.0732C85.2958 89.3893 85.3361 88.3212 86.02 87.6873C87.8955 85.9487 90.6181 85.9489 92.4932 87.6873C93.1768 88.3212 93.2173 89.3895 92.5832 90.0732C91.9496 90.7568 90.8812 90.7973 90.1972 90.1634C89.6261 89.6335 88.8873 89.6333 88.3153 90.1634C87.9907 90.4648 87.5788 90.6136 87.1682 90.6136Z" fill="#383842"/>
<path d="M72.7585 28.6273C74.2731 28.6273 75.5009 27.6407 75.5009 26.4236C75.5009 25.2065 74.2731 24.2198 72.7585 24.2198C71.2439 24.2198 70.0161 25.2065 70.0161 26.4236C70.0161 27.6407 71.2439 28.6273 72.7585 28.6273Z" fill="#FB99AC"/>
<path d="M105.03 28.6273C106.545 28.6273 107.773 27.6407 107.773 26.4236C107.773 25.2065 106.545 24.2198 105.03 24.2198C103.516 24.2198 102.288 25.2065 102.288 26.4236C102.288 27.6407 103.516 28.6273 105.03 28.6273Z" fill="#FB99AC"/>
<path d="M77.4599 26.4238C80.4632 26.4238 82.8979 23.9891 82.8979 20.9858C82.8979 17.9825 80.4632 15.5479 77.4599 15.5479C74.4566 15.5479 72.022 17.9825 72.022 20.9858C72.022 23.9891 74.4566 26.4238 77.4599 26.4238Z" fill="white"/>
<path d="M77.5445 23.2831C78.81 22.0176 78.81 19.9658 77.5445 18.7003C76.279 17.4348 74.2273 17.4348 72.9618 18.7003C71.6963 19.9658 71.6963 22.0176 72.9618 23.2831C74.2273 24.5486 76.279 24.5486 77.5445 23.2831Z" fill="#383842"/>
<path d="M100.329 26.4238C103.332 26.4238 105.767 23.9891 105.767 20.9858C105.767 17.9825 103.332 15.5479 100.329 15.5479C97.3258 15.5479 94.8911 17.9825 94.8911 20.9858C94.8911 23.9891 97.3258 26.4238 100.329 26.4238Z" fill="white"/>
<path d="M101.304 21.7608C101.716 20.0192 100.638 18.2736 98.8963 17.8619C97.1547 17.4502 95.4091 18.5284 94.9974 20.27C94.5857 22.0116 95.6638 23.7572 97.4054 24.1689C99.147 24.5806 100.893 23.5025 101.304 21.7608Z" fill="#383842"/>
<path d="M90.2882 22.3064H87.501C86.9489 22.3064 86.4622 22.6693 86.3064 23.1989C85.8157 24.8678 85.2523 28.2936 88.8946 28.2936C92.537 28.2936 91.9733 24.8678 91.4828 23.1989C91.3271 22.6693 90.8404 22.3064 90.2882 22.3064Z" fill="#383842"/>
<defs>
<linearGradient id="paint0_linear_15_182" x1="88.8945" y1="49.9506" x2="88.8945" y2="1.73962" gradientUnits="userSpaceOnUse">
<stop offset="0.0223" stop-color="#8959C3"/>
<stop offset="1" stop-color="#A27CCF"/>
</linearGradient>
<linearGradient id="paint1_linear_15_182" x1="24.1055" y1="1.73962" x2="24.1055" y2="49.9506" gradientUnits="userSpaceOnUse">
<stop offset="0.0212" stop-color="#FFB1DB"/>
<stop offset="1" stop-color="#FD86C8"/>
</linearGradient>
<linearGradient id="paint2_linear_15_182" x1="56.5" y1="80.6056" x2="56.5" y2="32.3947" gradientUnits="userSpaceOnUse">
<stop offset="0.0206" stop-color="#77E4D3"/>
<stop offset="1" stop-color="#01C2A0"/>
</linearGradient>
<linearGradient id="paint3_linear_15_182" x1="24.1055" y1="111.261" x2="24.1055" y2="63.0496" gradientUnits="userSpaceOnUse">
<stop offset="0.0223" stop-color="#F7F0A9"/>
<stop offset="0.9994" stop-color="#F4E46A"/>
</linearGradient>
<linearGradient id="paint4_linear_15_182" x1="88.8945" y1="111.261" x2="88.8945" y2="63.0496" gradientUnits="userSpaceOnUse">
<stop offset="0.000558036" stop-color="#5BD4FB"/>
<stop offset="0.9777" stop-color="#A2E4FD"/>
</linearGradient>
</defs>
</svg>
