<svg width="119" height="119" viewBox="0 0 119 119" fill="none" xmlns="http://www.w3.org/2000/svg">
<g clip-path="url(#clip0_15_308)">
<path d="M87.9283 116.641L94.026 119C94.026 99.3696 78.6726 88.2244 78.6726 88.2244H40.3276C40.3276 88.2244 25.4153 99.0503 24.9844 118.155L34.6193 115.443L36.2043 119H82.7959L87.9283 116.641Z" fill="url(#paint0_linear_15_308)"/>
<path d="M11.6367 53.565C11.6367 40.1808 17.161 28.0646 26.0464 19.37C25.0944 18.5565 24.2896 17.676 23.6093 16.7677C19.9286 11.8526 21.3013 4.82713 26.515 1.58307C28.8014 0.160289 31.5436 -0.319504 34.1844 0.208885C43.5861 2.08989 58.5825 2.70789 69.3541 2.89776C86.0779 3.19242 100.581 14.5896 104.773 30.7822C106.367 36.9408 107.363 44.4397 107.363 53.565H11.6367Z" fill="url(#paint1_linear_15_308)"/>
<path d="M19.896 63.9399C25.626 63.9399 30.2711 59.2949 30.2711 53.5649C30.2711 47.8349 25.626 43.1898 19.896 43.1898C14.1661 43.1898 9.521 47.8349 9.521 53.5649C9.521 59.2949 14.1661 63.9399 19.896 63.9399Z" fill="url(#paint2_linear_15_308)"/>
<path d="M99.1036 63.9399C104.834 63.9399 109.479 59.2949 109.479 53.5649C109.479 47.8349 104.834 43.1898 99.1036 43.1898C93.3736 43.1898 88.7285 47.8349 88.7285 53.5649C88.7285 59.2949 93.3736 63.9399 99.1036 63.9399Z" fill="url(#paint3_linear_15_308)"/>
<path d="M99.1035 53.5657C99.1035 75.437 81.3737 93.1692 59.5 93.1692C37.6263 93.1692 19.8965 75.437 19.8965 53.5657C19.8965 42.8035 24.1874 33.045 31.1531 25.9088C33.536 23.4677 37.1749 22.7338 40.3446 23.9949C63.5635 33.2333 67.6268 24.8549 85.9699 27.2031C88.3191 27.504 90.4559 28.7492 91.8263 30.6809C96.4106 37.1441 99.1035 45.0403 99.1035 53.5657Z" fill="url(#paint4_linear_15_308)"/>
<path d="M76.9767 13.5972C74.8726 12.9391 72.687 12.5326 70.4805 12.3892C69.18 12.3045 68.1944 11.1816 68.279 9.88115C68.3636 8.58069 69.4854 7.59669 70.787 7.67942C73.3673 7.84725 75.9237 8.32278 78.3857 9.09272C79.6295 9.48172 80.3224 10.8054 79.9334 12.0495C79.5456 13.2895 78.2238 13.9874 76.9767 13.5972Z" fill="#F3CAC0"/>
<path d="M86.3893 18.6266C85.5765 17.9617 84.7252 17.3603 83.859 16.8392C82.7423 16.1672 82.3815 14.7172 83.0535 13.6004C83.7251 12.4834 85.1754 12.1229 86.2921 12.7949C87.3517 13.4326 88.3898 14.1655 89.3778 14.9734C90.3865 15.7986 90.5354 17.2854 89.7102 18.2943C88.8824 19.3062 87.3954 19.4497 86.3893 18.6266Z" fill="#F3CAC0"/>
<path d="M32.4443 65.9086C34.9837 65.9086 37.0424 64.2543 37.0424 62.2135C37.0424 60.1727 34.9837 58.5183 32.4443 58.5183C29.9048 58.5183 27.8462 60.1727 27.8462 62.2135C27.8462 64.2543 29.9048 65.9086 32.4443 65.9086Z" fill="#FB99AC"/>
<path d="M86.5556 65.9086C89.0951 65.9086 91.1537 64.2543 91.1537 62.2135C91.1537 60.1727 89.0951 58.5183 86.5556 58.5183C84.0162 58.5183 81.9575 60.1727 81.9575 62.2135C81.9575 64.2543 84.0162 65.9086 86.5556 65.9086Z" fill="#FB99AC"/>
<path d="M40.3274 62.2136C45.3631 62.2136 49.4454 58.1313 49.4454 53.0956C49.4454 48.0599 45.3631 43.9777 40.3274 43.9777C35.2917 43.9777 31.2095 48.0599 31.2095 53.0956C31.2095 58.1313 35.2917 62.2136 40.3274 62.2136Z" fill="white"/>
<path d="M78.6726 62.2136C83.7083 62.2136 87.7906 58.1313 87.7906 53.0956C87.7906 48.0599 83.7083 43.9777 78.6726 43.9777C73.6369 43.9777 69.5547 48.0599 69.5547 53.0956C69.5547 58.1313 73.6369 62.2136 78.6726 62.2136Z" fill="white"/>
<path d="M40.3272 58.5297C43.3285 58.5297 45.7614 56.0968 45.7614 53.0956C45.7614 50.0943 43.3285 47.6614 40.3272 47.6614C37.326 47.6614 34.8931 50.0943 34.8931 53.0956C34.8931 56.0968 37.326 58.5297 40.3272 58.5297Z" fill="#383842"/>
<path d="M78.672 58.5297C81.6732 58.5297 84.1061 56.0968 84.1061 53.0956C84.1061 50.0943 81.6732 47.6614 78.672 47.6614C75.6708 47.6614 73.2378 50.0943 73.2378 53.0956C73.2378 56.0968 75.6708 58.5297 78.672 58.5297Z" fill="#383842"/>
<path d="M59.4997 62.1468C57.9697 62.1468 56.4398 61.5682 55.1915 60.4109C54.7115 59.966 54.683 59.2159 55.128 58.7359C55.5732 58.2559 56.3234 58.2274 56.803 58.6726C58.3905 60.1447 60.6084 60.1447 62.1959 58.6726C62.6757 58.2279 63.4257 58.2559 63.8709 58.7359C64.3159 59.2159 64.2876 59.9657 63.8074 60.4109C62.5595 61.5682 61.0296 62.1468 59.4997 62.1468Z" fill="#383842"/>
<path d="M59.4999 74.7456C54.9963 74.7456 51.4922 78.6591 51.9877 83.1351L53.419 96.0675H65.5807L67.012 83.1351C67.5075 78.6591 64.0034 74.7456 59.4999 74.7456Z" fill="url(#paint5_linear_15_308)"/>
<path d="M52.2573 85.5751L53.4186 96.0675H65.5804L66.7417 85.5751C64.3723 85.2041 61.953 85.0114 59.4995 85.0114C57.046 85.0114 54.6267 85.2041 52.2573 85.5751Z" fill="#D86743"/>
<path d="M24.9918 97.1251C21.4137 94.3907 16.2531 95.3721 13.9288 99.2294C11.6045 103.087 13.148 108.108 17.2373 109.994L29.0529 115.442L35.3298 105.026L24.9918 97.1251Z" fill="url(#paint6_linear_15_308)"/>
<path d="M94.008 97.1251C97.586 94.3907 102.747 95.3721 105.071 99.2294C107.395 103.087 105.852 108.108 101.762 109.994L89.9468 115.442L83.6699 105.026L94.008 97.1251Z" fill="url(#paint7_linear_15_308)"/>
<path d="M17.9878 110.34L29.0531 115.443L35.33 105.026L26.726 98.4504C23.2425 101.884 20.2798 105.883 17.9878 110.34Z" fill="#D86743"/>
<path d="M101.012 110.34C98.7203 105.884 95.7577 101.884 92.274 98.4503L83.6699 105.026L89.9468 115.442L101.012 110.34Z" fill="#D86743"/>
<path d="M36.2044 119C40.7124 110.76 49.4643 105.16 59.5002 105.16C69.536 105.16 78.2877 110.761 82.7957 119H97.0172C91.7141 103.37 76.8993 92.0911 59.4999 92.0911C42.1006 92.0911 27.2858 103.37 21.9829 119H36.2044Z" fill="url(#paint8_linear_15_308)"/>
<path d="M34.6437 113.443C35.9519 112.907 36.5783 111.413 36.0429 110.104C35.5075 108.796 34.0129 108.17 32.7047 108.705C31.3965 109.241 30.77 110.735 31.3054 112.043C31.8409 113.352 33.3354 113.978 34.6437 113.443Z" fill="#EEDE2C"/>
<path d="M87.8154 111.98C88.3508 110.672 87.7243 109.178 86.4161 108.642C85.1079 108.107 83.6133 108.733 83.0779 110.041C82.5425 111.35 83.1689 112.844 84.4771 113.38C85.7854 113.915 87.2799 113.289 87.8154 111.98Z" fill="#EEDE2C"/>
<path d="M59.4999 101.184C60.9127 101.184 62.0579 100.038 62.0579 98.6255C62.0579 97.2128 60.9127 96.0675 59.4999 96.0675C58.0872 96.0675 56.9419 97.2128 56.9419 98.6255C56.9419 100.038 58.0872 101.184 59.4999 101.184Z" fill="#EEDE2C"/>
</g>
<defs>
<linearGradient id="paint0_linear_15_308" x1="59.5053" y1="88.2244" x2="59.5053" y2="119" gradientUnits="userSpaceOnUse">
<stop stop-color="#78C5E6"/>
<stop offset="0.9788" stop-color="#BBE3F4"/>
</linearGradient>
<linearGradient id="paint1_linear_15_308" x1="11.6367" y1="26.7824" x2="107.363" y2="26.7824" gradientUnits="userSpaceOnUse">
<stop stop-color="#D66743"/>
<stop offset="0.9788" stop-color="#E79580"/>
</linearGradient>
<linearGradient id="paint2_linear_15_308" x1="9.521" y1="53.5649" x2="30.2711" y2="53.5649" gradientUnits="userSpaceOnUse">
<stop offset="0.0212" stop-color="#FDC8BB"/>
<stop offset="1" stop-color="#FDDACC"/>
</linearGradient>
<linearGradient id="paint3_linear_15_308" x1="88.7285" y1="53.5649" x2="109.479" y2="53.5649" gradientUnits="userSpaceOnUse">
<stop offset="0.0212" stop-color="#FDC8BB"/>
<stop offset="1" stop-color="#FDDACC"/>
</linearGradient>
<linearGradient id="paint4_linear_15_308" x1="19.8965" y1="58.2783" x2="99.1035" y2="58.2783" gradientUnits="userSpaceOnUse">
<stop offset="0.0212" stop-color="#FDC8BB"/>
<stop offset="1" stop-color="#FDDACC"/>
</linearGradient>
<linearGradient id="paint5_linear_15_308" x1="59.4999" y1="96.0675" x2="59.4999" y2="74.7456" gradientUnits="userSpaceOnUse">
<stop stop-color="#D66743"/>
<stop offset="0.9788" stop-color="#E79580"/>
</linearGradient>
<linearGradient id="paint6_linear_15_308" x1="24.0862" y1="115.442" x2="24.0862" y2="95.5712" gradientUnits="userSpaceOnUse">
<stop stop-color="#D66743"/>
<stop offset="0.9788" stop-color="#E79580"/>
</linearGradient>
<linearGradient id="paint7_linear_15_308" x1="94.9138" y1="115.442" x2="94.9138" y2="95.5712" gradientUnits="userSpaceOnUse">
<stop stop-color="#D66743"/>
<stop offset="0.9788" stop-color="#E79580"/>
</linearGradient>
<linearGradient id="paint8_linear_15_308" x1="59.4999" y1="119" x2="59.4999" y2="92.0911" gradientUnits="userSpaceOnUse">
<stop stop-color="#D66743"/>
<stop offset="0.9788" stop-color="#E79580"/>
</linearGradient>
<clipPath id="clip0_15_308">
<rect width="119" height="119" fill="white"/>
</clipPath>
</defs>
</svg>
