<svg width="22" height="22" viewBox="0 0 22 22" fill="none" xmlns="http://www.w3.org/2000/svg">
<path d="M10.9997 1.8335C8.64972 1.8402 6.39206 2.74916 4.69302 4.37265V2.75016C4.69302 2.50704 4.59644 2.27389 4.42453 2.10198C4.25262 1.93007 4.01947 1.8335 3.77635 1.8335C3.53323 1.8335 3.30007 1.93007 3.12817 2.10198C2.95626 2.27389 2.85968 2.50704 2.85968 2.75016V6.87514C2.85968 7.11825 2.95626 7.35141 3.12817 7.52332C3.30007 7.69523 3.53323 7.7918 3.77635 7.7918H7.90137C8.14448 7.7918 8.37764 7.69523 8.54955 7.52332C8.72146 7.35141 8.81804 7.11825 8.81804 6.87514C8.81804 6.63203 8.72146 6.39887 8.54955 6.22696C8.37764 6.05505 8.14448 5.95848 7.90137 5.95848H5.70136C6.87999 4.72681 8.45092 3.94425 10.144 3.74535C11.8371 3.54645 13.5467 3.94363 14.9787 4.86861C16.4107 5.79358 17.4757 7.18856 17.9905 8.81369C18.5054 10.4388 18.438 12.1926 17.8 13.7734C17.1619 15.3542 15.993 16.6634 14.4942 17.4757C12.9954 18.2881 11.2605 18.5529 9.58763 18.2246C7.91477 17.8964 6.40854 16.9956 5.3279 15.6771C4.24726 14.3586 3.65974 12.7049 3.66635 11.0001C3.66635 10.757 3.56977 10.5239 3.39786 10.3519C3.22595 10.18 2.99279 10.0835 2.74968 10.0835C2.50656 10.0835 2.2734 10.18 2.10149 10.3519C1.92959 10.5239 1.83301 10.757 1.83301 11.0001C1.83301 12.8131 2.37063 14.5854 3.37788 16.0928C4.38513 17.6003 5.81677 18.7752 7.49177 19.469C9.16676 20.1628 11.0099 20.3443 12.788 19.9906C14.5662 19.6369 16.1996 18.7639 17.4816 17.4819C18.7635 16.1999 19.6366 14.5666 19.9903 12.7884C20.344 11.0103 20.1624 9.16719 19.4686 7.49221C18.7748 5.81722 17.5999 4.38559 16.0925 3.37835C14.585 2.37111 12.8127 1.8335 10.9997 1.8335ZM10.9997 7.33347C10.7566 7.33347 10.5234 7.43005 10.3515 7.60196C10.1796 7.77386 10.083 8.00702 10.083 8.25013V11.0001C10.083 11.2432 10.1796 11.4764 10.3515 11.6483C10.5234 11.8202 10.7566 11.9168 10.9997 11.9168H12.8331C13.0762 11.9168 13.3093 11.8202 13.4812 11.6483C13.6531 11.4764 13.7497 11.2432 13.7497 11.0001C13.7497 10.757 13.6531 10.5239 13.4812 10.3519C13.3093 10.18 13.0762 10.0835 12.8331 10.0835H11.9164V8.25013C11.9164 8.00702 11.8198 7.77386 11.6479 7.60196C11.476 7.43005 11.2428 7.33347 10.9997 7.33347Z" fill="#5B636B"/>
</svg>
