<svg width="22" height="22" viewBox="0 0 22 22" fill="none" xmlns="http://www.w3.org/2000/svg">
<path d="M17.4096 19.2518H16.4929V17.7237C16.49 17.199 16.397 16.6787 16.2179 16.1855C16.2082 16.1594 16.1971 16.1337 16.1849 16.1085C16.0366 15.7037 15.8317 15.3219 15.5763 14.9746L14.2929 13.2632C13.9369 12.7863 13.7441 12.2074 13.7429 11.6123V10.6865C13.7452 9.95804 14.0343 9.25984 14.5478 8.74313L15.15 8.13996C15.8503 7.43611 16.3002 6.52183 16.4306 5.53754C16.4306 5.52563 16.4379 5.51463 16.4379 5.50087L16.4352 5.48896C16.4671 5.29393 16.4864 5.09705 16.4929 4.89954V2.75179H17.4096C17.6527 2.75179 17.8859 2.65521 18.0578 2.48331C18.2297 2.3114 18.3263 2.07824 18.3263 1.83512C18.3263 1.59201 18.2297 1.35885 18.0578 1.18694C17.8859 1.01503 17.6527 0.918457 17.4096 0.918457H4.57627C4.33316 0.918457 4.1 1.01503 3.92809 1.18694C3.75619 1.35885 3.65961 1.59201 3.65961 1.83512C3.65961 2.07824 3.75619 2.3114 3.92809 2.48331C4.1 2.65521 4.33316 2.75179 4.57627 2.75179H5.49294V4.89954C5.49951 5.09705 5.5188 5.29393 5.55069 5.48896L5.54794 5.50179C5.54794 5.51463 5.55436 5.52562 5.55527 5.53846C5.6856 6.52231 6.13515 7.43622 6.83494 8.13996L7.43719 8.74221C7.95117 9.259 8.24069 9.95759 8.24294 10.6865V11.6123C8.2415 12.2071 8.04866 12.7856 7.69294 13.2623L6.40961 14.9746C6.15389 15.3219 5.94866 15.7037 5.80002 16.1085C5.78783 16.1337 5.77682 16.1594 5.76702 16.1855C5.58804 16.6788 5.49503 17.199 5.49202 17.7237V19.2518H4.57536C4.33224 19.2518 4.09909 19.3484 3.92718 19.5203C3.75527 19.6922 3.65869 19.9253 3.65869 20.1685C3.65869 20.4116 3.75527 20.6447 3.92718 20.8166C4.09909 20.9886 4.33224 21.0851 4.57536 21.0851H17.4087C17.6518 21.0851 17.885 20.9886 18.0569 20.8166C18.2288 20.6447 18.3254 20.4116 18.3254 20.1685C18.3254 19.9253 18.2288 19.6922 18.0569 19.5203C17.885 19.3484 17.6518 19.2518 17.4087 19.2518H17.4096ZM7.32627 4.58512V2.75179H14.6596V4.58512H7.32627ZM8.13111 6.84379C8.0019 6.714 7.88612 6.5715 7.78552 6.41846H14.1994C14.0988 6.5715 13.9831 6.714 13.8539 6.84379L13.2516 7.44604C12.5365 8.15687 12.078 9.08523 11.9481 10.0851H10.0378C9.90792 9.08523 9.44938 8.15687 8.73427 7.44604L8.13111 6.84379ZM9.15961 14.3623C9.68991 13.6516 10.0043 12.8031 10.0653 11.9185H11.9197C11.9807 12.8033 12.2955 13.6518 12.8263 14.3623L13.7429 15.5851H8.24294L9.15961 14.3623ZM14.6596 19.2518H7.32627V17.7237C7.32876 17.6216 7.33702 17.5197 7.35102 17.4185H14.6339C14.6482 17.5196 14.6568 17.6216 14.6596 17.7237V19.2518Z" fill="#5B636B"/>
</svg>
