<svg width="30" height="30" viewBox="0 0 30 30" fill="none" xmlns="http://www.w3.org/2000/svg">
<path d="M27.5001 12.0876C27.4212 11.8589 27.2776 11.6581 27.0868 11.5094C26.8959 11.3608 26.6661 11.2707 26.4251 11.2501L19.3126 10.2126L16.1251 3.75006C16.0227 3.53872 15.8629 3.36049 15.664 3.23578C15.465 3.11107 15.2349 3.04492 15.0001 3.04492C14.7653 3.04492 14.5352 3.11107 14.3362 3.23578C14.1373 3.36049 13.9774 3.53872 13.8751 3.75006L10.6876 10.2001L3.57509 11.2501C3.34375 11.2829 3.12625 11.38 2.94728 11.5303C2.76831 11.6805 2.63504 11.8779 2.56259 12.1001C2.49628 12.3172 2.49032 12.5482 2.54538 12.7684C2.60043 12.9886 2.71442 13.1897 2.87509 13.3501L8.03759 18.3501L6.78759 25.4501C6.73713 25.6856 6.75579 25.9307 6.84132 26.1559C6.92686 26.381 7.07564 26.5767 7.26975 26.7193C7.46387 26.8619 7.69506 26.9454 7.9355 26.9597C8.17595 26.9741 8.41542 26.9186 8.62509 26.8001L15.0001 23.4626L21.3751 26.8001C21.5505 26.899 21.7487 26.9507 21.9501 26.9501C22.2149 26.951 22.4731 26.8678 22.6876 26.7126C22.8815 26.5736 23.0317 26.3821 23.1203 26.1606C23.2088 25.9391 23.2322 25.6969 23.1876 25.4626L21.9376 18.3626L27.1001 13.3626C27.2806 13.2097 27.414 13.0087 27.4848 12.783C27.5556 12.5573 27.5609 12.3162 27.5001 12.0876ZM19.8126 17.0876C19.6679 17.2281 19.5594 17.4015 19.4963 17.593C19.4331 17.7846 19.4173 17.9886 19.4501 18.1876L20.3501 23.4376L15.6501 20.9376C15.4674 20.8472 15.2664 20.8002 15.0626 20.8002C14.8588 20.8002 14.6578 20.8472 14.4751 20.9376L9.77509 23.4376L10.6751 18.1876C10.7079 17.9886 10.6921 17.7846 10.6289 17.593C10.5658 17.4015 10.4573 17.2281 10.3126 17.0876L6.56259 13.3376L11.8251 12.5751C12.0276 12.5469 12.2201 12.4695 12.3857 12.3496C12.5513 12.2298 12.685 12.0711 12.7751 11.8876L15.0001 7.12506L17.3501 11.9001C17.4401 12.0836 17.5738 12.2423 17.7395 12.3621C17.9051 12.482 18.0976 12.5594 18.3001 12.5876L23.5626 13.3501L19.8126 17.0876Z" fill="#F2B236"/>
</svg>
